M48
; DRILL file {KiCad 7.0.8} date 2023 December 06, Wednesday 02:46:34
; FORMAT={-:-/ absolute / metric / decimal}
; #@! TF.CreationDate,2023-12-06T02:46:34-07:00
; #@! TF.GenerationSoftware,Kicad,Pcbnew,7.0.8
; #@! TF.FileFunction,Plated,1,2,PTH
FMAT,2
METRIC
; #@! TA.AperFunction,Plated,PTH,ViaDrill
T1C0.400
; #@! TA.AperFunction,Plated,PTH,ComponentDrill
T2C1.000
; #@! TA.AperFunction,Plated,PTH,ComponentDrill
T3C1.300
%
G90
G05
T1
X120.65Y-57.15
X120.65Y-64.77
X120.65Y-87.63
X128.016Y-63.792
X128.27Y-80.374
X129.032Y-63.792
X129.239Y-74.303
X129.781Y-70.989
X130.048Y-76.056
X130.81Y-53.34
X131.572Y-68.436
X132.118Y-76.094
X132.334Y-65.896
X132.588Y-67.674
X134.366Y-60.054
X135.128Y-80.628
X135.636Y-60.562
X135.636Y-61.832
X135.89Y-64.88
X137.16Y-61.832
X137.16Y-62.848
X137.528Y-75.662
X137.668Y-74.532
X137.668Y-85.708
X139.192Y-65.896
X139.446Y-85.708
X139.767Y-66.714
X139.954Y-65.134
X140.208Y-75.802
X140.716Y-64.372
X141.224Y-62.794
X141.226Y-61.795
X141.785Y-75.726
X142.24Y-60.562
X142.494Y-61.832
X143.256Y-76.31
X143.256Y-78.85
X144.356Y-69.281
X147.327Y-80.569
X152.4Y-57.15
X152.4Y-64.77
X152.4Y-72.39
X152.4Y-80.01
X152.4Y-87.63
T2
X125.282Y-90.74G85X125.282Y-92.24
G05
X132.782Y-90.74G85X132.782Y-92.24
G05
X140.014Y-90.8G85X140.014Y-92.3
G05
X147.514Y-90.8G85X147.514Y-92.3
G05
T3
X128.557Y-95.19G85X129.507Y-95.19
G05
X143.289Y-95.25G85X144.239Y-95.25
G05
T0
M30
