%TF.GenerationSoftware,KiCad,Pcbnew,7.0.8*%
%TF.CreationDate,2023-12-06T02:29:27-07:00*%
%TF.ProjectId,C3I2,43334932-2e6b-4696-9361-645f70636258,rev?*%
%TF.SameCoordinates,Original*%
%TF.FileFunction,Copper,L2,Bot*%
%TF.FilePolarity,Positive*%
%FSLAX46Y46*%
G04 Gerber Fmt 4.6, Leading zero omitted, Abs format (unit mm)*
G04 Created by KiCad (PCBNEW 7.0.8) date 2023-12-06 02:29:27*
%MOMM*%
%LPD*%
G01*
G04 APERTURE LIST*
%TA.AperFunction,ComponentPad*%
%ADD10O,1.800000X3.600000*%
%TD*%
%TA.AperFunction,ComponentPad*%
%ADD11O,4.200000X2.100000*%
%TD*%
%TA.AperFunction,ViaPad*%
%ADD12C,0.800000*%
%TD*%
%TA.AperFunction,Conductor*%
%ADD13C,0.200000*%
%TD*%
G04 APERTURE END LIST*
D10*
%TO.P,J3,2*%
%TO.N,GND*%
X125282000Y-91490000D03*
D11*
%TO.P,J3,1*%
%TO.N,Net-(J3-Pad1)*%
X129032000Y-95190000D03*
D10*
%TO.P,J3,3*%
%TO.N,GND*%
X132782000Y-91490000D03*
%TD*%
%TO.P,J2,2*%
%TO.N,GND*%
X140014000Y-91550000D03*
D11*
%TO.P,J2,1*%
%TO.N,Net-(J2-Pad1)*%
X143764000Y-95250000D03*
D10*
%TO.P,J2,3*%
%TO.N,GND*%
X147514000Y-91550000D03*
%TD*%
D12*
%TO.N,GND*%
X147327488Y-80568551D03*
X141785069Y-75726124D03*
X130810000Y-53340000D03*
X129238545Y-74303347D03*
X120650000Y-57150000D03*
X120650000Y-64770000D03*
X120650000Y-87630000D03*
X152400000Y-87630000D03*
X152400000Y-80010000D03*
X152400000Y-72390000D03*
X152400000Y-64770000D03*
X152400000Y-57150000D03*
X144356230Y-69280712D03*
%TO.N,+3.3V*%
X143256000Y-76310000D03*
X143256000Y-78850000D03*
%TO.N,RESET*%
X130048000Y-76056000D03*
X128270000Y-80374000D03*
%TO.N,I2C_ADD*%
X132118372Y-76094372D03*
X135128000Y-80628000D03*
%TO.N,Ain2*%
X137668000Y-85708000D03*
%TO.N,Ain1*%
X139446000Y-85708000D03*
%TO.N,INT*%
X139766780Y-66713700D03*
X140208000Y-75802000D03*
%TO.N,Ain2*%
X131572000Y-68436000D03*
%TO.N,Ain1*%
X132588000Y-67674000D03*
%TO.N,I2C_SDA*%
X137527622Y-75661622D03*
X128016000Y-63792500D03*
%TO.N,I2C_SCL*%
X129032000Y-63792500D03*
X137668000Y-74532000D03*
%TO.N,PWR_EN*%
X134366000Y-60054000D03*
X140716000Y-64372000D03*
%TO.N,PVDD*%
X139954000Y-65134000D03*
X132334000Y-65896000D03*
%TO.N,+1V8*%
X129780622Y-70989378D03*
X135890000Y-64880000D03*
X139192000Y-65896000D03*
%TO.N,MIPI_CL_N*%
X137160000Y-62848000D03*
X135636000Y-61832000D03*
%TO.N,MIPI_CL_P*%
X135636000Y-60562000D03*
X137160000Y-61832000D03*
%TO.N,MIPI_D0_P*%
X141223997Y-62794401D03*
X142494000Y-61832000D03*
%TO.N,MIPI_D0_N*%
X141226133Y-61794901D03*
X142240000Y-60562000D03*
%TD*%
D13*
%TO.N,INT*%
X139766780Y-66713700D02*
X140208000Y-67154920D01*
X140208000Y-67154920D02*
X140208000Y-75802000D01*
%TO.N,+3.3V*%
X143256000Y-78850000D02*
X143256000Y-76310000D01*
%TO.N,RESET*%
X128270000Y-80374000D02*
X128270000Y-77834000D01*
X128270000Y-77834000D02*
X130048000Y-76056000D01*
%TO.N,I2C_ADD*%
X132118372Y-77618372D02*
X132118372Y-76094372D01*
X135128000Y-80628000D02*
X132118372Y-77618372D01*
%TO.N,Ain2*%
X138368000Y-85008000D02*
X137668000Y-85708000D01*
X138368000Y-79674000D02*
X138368000Y-85008000D01*
%TO.N,Ain1*%
X138938000Y-85200000D02*
X139446000Y-85708000D01*
X138938000Y-74024000D02*
X138938000Y-85200000D01*
%TO.N,Ain2*%
X131572000Y-68436000D02*
X132561950Y-68436000D01*
X132561950Y-68436000D02*
X138368000Y-74242050D01*
X138368000Y-74242050D02*
X138368000Y-79674000D01*
%TO.N,Ain1*%
X132588000Y-67674000D02*
X138938000Y-74024000D01*
%TO.N,+1V8*%
X135890000Y-64880000D02*
X134339950Y-64880000D01*
X134339950Y-64880000D02*
X132561950Y-66658000D01*
X132561950Y-66658000D02*
X130810000Y-66658000D01*
X129780622Y-67687378D02*
X129780622Y-70989378D01*
X130810000Y-66658000D02*
X129780622Y-67687378D01*
%TO.N,I2C_SCL*%
X133096000Y-75294000D02*
X136906000Y-75294000D01*
X129032000Y-71230000D02*
X133096000Y-75294000D01*
X136906000Y-75294000D02*
X137668000Y-74532000D01*
X129032000Y-63792500D02*
X129032000Y-71230000D01*
%TO.N,I2C_SDA*%
X132930315Y-75694000D02*
X137495244Y-75694000D01*
X128632000Y-71395686D02*
X132930315Y-75694000D01*
X128632000Y-70722000D02*
X128632000Y-71395686D01*
X137495244Y-75694000D02*
X137527622Y-75661622D01*
X128016000Y-63792500D02*
X128632000Y-64408500D01*
X128632000Y-64408500D02*
X128632000Y-70722000D01*
%TO.N,PWR_EN*%
X136206000Y-59862000D02*
X134558000Y-59862000D01*
X134558000Y-59862000D02*
X134366000Y-60054000D01*
X140716000Y-64372000D02*
X136206000Y-59862000D01*
%TO.N,PVDD*%
X137668000Y-65134000D02*
X136398000Y-63864000D01*
X139954000Y-65134000D02*
X137668000Y-65134000D01*
X136398000Y-63864000D02*
X134366000Y-63864000D01*
X134366000Y-63864000D02*
X132334000Y-65896000D01*
%TO.N,+1V8*%
X136906000Y-65896000D02*
X135890000Y-64880000D01*
X139192000Y-65896000D02*
X136906000Y-65896000D01*
%TO.N,MIPI_CL_N*%
X135636000Y-61832000D02*
X136144000Y-61832000D01*
X136144000Y-61832000D02*
X137160000Y-62848000D01*
%TO.N,MIPI_D0_N*%
X142240000Y-60781034D02*
X141226133Y-61794901D01*
X142240000Y-60562000D02*
X142240000Y-60781034D01*
%TO.N,MIPI_D0_P*%
X141223997Y-62794401D02*
X141531599Y-62794401D01*
X141531599Y-62794401D02*
X142494000Y-61832000D01*
%TO.N,MIPI_CL_P*%
X135636000Y-60562000D02*
X136906000Y-61832000D01*
X136906000Y-61832000D02*
X137160000Y-61832000D01*
%TD*%
%TA.AperFunction,Conductor*%
%TO.N,GND*%
G36*
X150077525Y-50809496D02*
G01*
X150282732Y-50818456D01*
X150287654Y-50818870D01*
X150505755Y-50846056D01*
X150710849Y-50873058D01*
X150715420Y-50873837D01*
X150930399Y-50918913D01*
X151132714Y-50963766D01*
X151136969Y-50964869D01*
X151255715Y-51000222D01*
X151347449Y-51027533D01*
X151400220Y-51044171D01*
X151545378Y-51089939D01*
X151549180Y-51091277D01*
X151753265Y-51170912D01*
X151753908Y-51171163D01*
X151945763Y-51250632D01*
X151949234Y-51252196D01*
X152146710Y-51348737D01*
X152146733Y-51348748D01*
X152331061Y-51444704D01*
X152334169Y-51446437D01*
X152456039Y-51519054D01*
X152523108Y-51559019D01*
X152698522Y-51670771D01*
X152701212Y-51672586D01*
X152880304Y-51800456D01*
X153045405Y-51927142D01*
X153047733Y-51929019D01*
X153215753Y-52071323D01*
X153370324Y-52212962D01*
X153527037Y-52369675D01*
X153668676Y-52524246D01*
X153810979Y-52692265D01*
X153812856Y-52694593D01*
X153939543Y-52859695D01*
X154067412Y-53038786D01*
X154069244Y-53041501D01*
X154180986Y-53216901D01*
X154293561Y-53405829D01*
X154295294Y-53408937D01*
X154391251Y-53593266D01*
X154487786Y-53790731D01*
X154489366Y-53794235D01*
X154568836Y-53986091D01*
X154600362Y-54066886D01*
X154648708Y-54190785D01*
X154650072Y-54194657D01*
X154712466Y-54392549D01*
X154775124Y-54603014D01*
X154776232Y-54607286D01*
X154821099Y-54809663D01*
X154866157Y-55024559D01*
X154866946Y-55029191D01*
X154893952Y-55234318D01*
X154921126Y-55452322D01*
X154921543Y-55457288D01*
X154930512Y-55662701D01*
X154939500Y-55880000D01*
X154939500Y-93980000D01*
X154930512Y-94197298D01*
X154921543Y-94402710D01*
X154921126Y-94407676D01*
X154893952Y-94625681D01*
X154866946Y-94830807D01*
X154866157Y-94835439D01*
X154821099Y-95050336D01*
X154776232Y-95252712D01*
X154775124Y-95256984D01*
X154712466Y-95467450D01*
X154650072Y-95665341D01*
X154648700Y-95669236D01*
X154568836Y-95873908D01*
X154489366Y-96065763D01*
X154487786Y-96069267D01*
X154391251Y-96266733D01*
X154295294Y-96451061D01*
X154293561Y-96454169D01*
X154180986Y-96643098D01*
X154069244Y-96818497D01*
X154067412Y-96821212D01*
X153939543Y-97000304D01*
X153812856Y-97165405D01*
X153810979Y-97167733D01*
X153668676Y-97335753D01*
X153527037Y-97490324D01*
X153370324Y-97647037D01*
X153215753Y-97788676D01*
X153047733Y-97930979D01*
X153045405Y-97932856D01*
X152880304Y-98059543D01*
X152701212Y-98187412D01*
X152698497Y-98189244D01*
X152523098Y-98300986D01*
X152334169Y-98413561D01*
X152331061Y-98415294D01*
X152146733Y-98511251D01*
X151949267Y-98607786D01*
X151945763Y-98609366D01*
X151753908Y-98688836D01*
X151549236Y-98768700D01*
X151545341Y-98770072D01*
X151347450Y-98832466D01*
X151136984Y-98895124D01*
X151132712Y-98896232D01*
X150930336Y-98941099D01*
X150715439Y-98986157D01*
X150710807Y-98986946D01*
X150505681Y-99013952D01*
X150287676Y-99041126D01*
X150282710Y-99041543D01*
X150077298Y-99050512D01*
X149860000Y-99059500D01*
X123190000Y-99059500D01*
X122972701Y-99050512D01*
X122767288Y-99041543D01*
X122762322Y-99041126D01*
X122544318Y-99013952D01*
X122339191Y-98986946D01*
X122334559Y-98986157D01*
X122119663Y-98941099D01*
X121917286Y-98896232D01*
X121913014Y-98895124D01*
X121702549Y-98832466D01*
X121504657Y-98770072D01*
X121500785Y-98768708D01*
X121368255Y-98716995D01*
X121296091Y-98688836D01*
X121104235Y-98609366D01*
X121100731Y-98607786D01*
X120903266Y-98511251D01*
X120718937Y-98415294D01*
X120715829Y-98413561D01*
X120526901Y-98300986D01*
X120351501Y-98189244D01*
X120348786Y-98187412D01*
X120169695Y-98059543D01*
X120004593Y-97932856D01*
X120002265Y-97930979D01*
X119834246Y-97788676D01*
X119679675Y-97647037D01*
X119522962Y-97490324D01*
X119381323Y-97335753D01*
X119239019Y-97167733D01*
X119237142Y-97165405D01*
X119110456Y-97000304D01*
X118982586Y-96821212D01*
X118980771Y-96818522D01*
X118869013Y-96643098D01*
X118822316Y-96564730D01*
X118756437Y-96454169D01*
X118754704Y-96451061D01*
X118658748Y-96266733D01*
X118562196Y-96069234D01*
X118560632Y-96065763D01*
X118481163Y-95873908D01*
X118463398Y-95828381D01*
X118401277Y-95669180D01*
X118399939Y-95665378D01*
X118354171Y-95520220D01*
X118337533Y-95467449D01*
X118291442Y-95312635D01*
X118274869Y-95256969D01*
X118273766Y-95252712D01*
X118273748Y-95252629D01*
X126427717Y-95252629D01*
X126457892Y-95501150D01*
X126527540Y-95741601D01*
X126527541Y-95741604D01*
X126568717Y-95828381D01*
X126634860Y-95967775D01*
X126707941Y-96073650D01*
X126777068Y-96173797D01*
X126950484Y-96354341D01*
X127150615Y-96504730D01*
X127372279Y-96621069D01*
X127609734Y-96700343D01*
X127609737Y-96700343D01*
X127609739Y-96700344D01*
X127856828Y-96740500D01*
X127856831Y-96740500D01*
X130144482Y-96740500D01*
X130238004Y-96732950D01*
X130331527Y-96725400D01*
X130574591Y-96665490D01*
X130804897Y-96567366D01*
X131016481Y-96433568D01*
X131203862Y-96267563D01*
X131362188Y-96073650D01*
X131487357Y-95856850D01*
X131576128Y-95622780D01*
X131626202Y-95377500D01*
X131628816Y-95312629D01*
X141159717Y-95312629D01*
X141189892Y-95561150D01*
X141259540Y-95801601D01*
X141366860Y-96027775D01*
X141439941Y-96133650D01*
X141509068Y-96233797D01*
X141682484Y-96414341D01*
X141882615Y-96564730D01*
X141887639Y-96567367D01*
X141989953Y-96621066D01*
X142104279Y-96681069D01*
X142341734Y-96760343D01*
X142341737Y-96760343D01*
X142341739Y-96760344D01*
X142588828Y-96800500D01*
X142588831Y-96800500D01*
X144876482Y-96800500D01*
X144970004Y-96792950D01*
X145063527Y-96785400D01*
X145306591Y-96725490D01*
X145536897Y-96627366D01*
X145748481Y-96493568D01*
X145935862Y-96327563D01*
X146094188Y-96133650D01*
X146219357Y-95916850D01*
X146308128Y-95682780D01*
X146358202Y-95437500D01*
X146363234Y-95312628D01*
X146368282Y-95187371D01*
X146368282Y-95187365D01*
X146338107Y-94938849D01*
X146285497Y-94757220D01*
X146268459Y-94698396D01*
X146161141Y-94472228D01*
X146161140Y-94472227D01*
X146161139Y-94472224D01*
X146066335Y-94334878D01*
X146018932Y-94266203D01*
X145845516Y-94085659D01*
X145645385Y-93935270D01*
X145645383Y-93935269D01*
X145645382Y-93935268D01*
X145423726Y-93818933D01*
X145423722Y-93818931D01*
X145423721Y-93818931D01*
X145186266Y-93739657D01*
X145186265Y-93739656D01*
X145186260Y-93739655D01*
X144939172Y-93699500D01*
X144939169Y-93699500D01*
X142651519Y-93699500D01*
X142651518Y-93699500D01*
X142464473Y-93714599D01*
X142221411Y-93774509D01*
X141991106Y-93872632D01*
X141779514Y-94006435D01*
X141592143Y-94172431D01*
X141433809Y-94366353D01*
X141308643Y-94583148D01*
X141219871Y-94817222D01*
X141169798Y-95062493D01*
X141169797Y-95062503D01*
X141159717Y-95312628D01*
X141159717Y-95312629D01*
X131628816Y-95312629D01*
X131636282Y-95127365D01*
X131606107Y-94878851D01*
X131606107Y-94878849D01*
X131570876Y-94757220D01*
X131536459Y-94638396D01*
X131429141Y-94412228D01*
X131429140Y-94412227D01*
X131429139Y-94412224D01*
X131286933Y-94206205D01*
X131286932Y-94206203D01*
X131113516Y-94025659D01*
X130913385Y-93875270D01*
X130913383Y-93875269D01*
X130913382Y-93875268D01*
X130691726Y-93758933D01*
X130691722Y-93758931D01*
X130691721Y-93758931D01*
X130454266Y-93679657D01*
X130454265Y-93679656D01*
X130454260Y-93679655D01*
X130207172Y-93639500D01*
X130207169Y-93639500D01*
X127919519Y-93639500D01*
X127919518Y-93639500D01*
X127732473Y-93654599D01*
X127489411Y-93714509D01*
X127259106Y-93812632D01*
X127047514Y-93946435D01*
X126860143Y-94112431D01*
X126701809Y-94306353D01*
X126576643Y-94523148D01*
X126487871Y-94757222D01*
X126437798Y-95002493D01*
X126437797Y-95002503D01*
X126427717Y-95252628D01*
X126427717Y-95252629D01*
X118273748Y-95252629D01*
X118259279Y-95187365D01*
X118228913Y-95050398D01*
X118183837Y-94835420D01*
X118183058Y-94830849D01*
X118156047Y-94625681D01*
X118128870Y-94407654D01*
X118128456Y-94402732D01*
X118119487Y-94197298D01*
X118110500Y-93980000D01*
X118110500Y-93979500D01*
X118110500Y-92449478D01*
X123882000Y-92449478D01*
X123897147Y-92627450D01*
X123897148Y-92627453D01*
X123957197Y-92858078D01*
X124055360Y-93075241D01*
X124055362Y-93075244D01*
X124188812Y-93272688D01*
X124188814Y-93272690D01*
X124353706Y-93444736D01*
X124545316Y-93586450D01*
X124758115Y-93693741D01*
X124985987Y-93763526D01*
X124985985Y-93763526D01*
X125032000Y-93769418D01*
X125032000Y-92673686D01*
X125072156Y-92699493D01*
X125210111Y-92740000D01*
X125353889Y-92740000D01*
X125491844Y-92699493D01*
X125532000Y-92673686D01*
X125532000Y-93768264D01*
X125693434Y-93733473D01*
X125914562Y-93644616D01*
X126117494Y-93519666D01*
X126296389Y-93362219D01*
X126296396Y-93362213D01*
X126446102Y-93176805D01*
X126446109Y-93176795D01*
X126562331Y-92968751D01*
X126641722Y-92744052D01*
X126641726Y-92744038D01*
X126681999Y-92509167D01*
X126682000Y-92509156D01*
X126682000Y-92449478D01*
X131382000Y-92449478D01*
X131397147Y-92627450D01*
X131397148Y-92627453D01*
X131457197Y-92858078D01*
X131555360Y-93075241D01*
X131555362Y-93075244D01*
X131688812Y-93272688D01*
X131688814Y-93272690D01*
X131853706Y-93444736D01*
X132045316Y-93586450D01*
X132258115Y-93693741D01*
X132485987Y-93763526D01*
X132485985Y-93763526D01*
X132532000Y-93769418D01*
X132532000Y-92673686D01*
X132572156Y-92699493D01*
X132710111Y-92740000D01*
X132853889Y-92740000D01*
X132991844Y-92699493D01*
X133032000Y-92673686D01*
X133032000Y-93768264D01*
X133193434Y-93733473D01*
X133414562Y-93644616D01*
X133617494Y-93519666D01*
X133796389Y-93362219D01*
X133796396Y-93362213D01*
X133946102Y-93176805D01*
X133946109Y-93176795D01*
X134062331Y-92968751D01*
X134141722Y-92744052D01*
X134141726Y-92744038D01*
X134181946Y-92509478D01*
X138614000Y-92509478D01*
X138629147Y-92687450D01*
X138629148Y-92687453D01*
X138689197Y-92918078D01*
X138787360Y-93135241D01*
X138787362Y-93135244D01*
X138920812Y-93332688D01*
X138920814Y-93332690D01*
X139085706Y-93504736D01*
X139277316Y-93646450D01*
X139490115Y-93753741D01*
X139717987Y-93823526D01*
X139717985Y-93823526D01*
X139764000Y-93829418D01*
X139764000Y-92733686D01*
X139804156Y-92759493D01*
X139942111Y-92800000D01*
X140085889Y-92800000D01*
X140223844Y-92759493D01*
X140264000Y-92733686D01*
X140264000Y-93828264D01*
X140425434Y-93793473D01*
X140646562Y-93704616D01*
X140849494Y-93579666D01*
X141028389Y-93422219D01*
X141028396Y-93422213D01*
X141178102Y-93236805D01*
X141178109Y-93236795D01*
X141294331Y-93028751D01*
X141373722Y-92804052D01*
X141373726Y-92804038D01*
X141413999Y-92569167D01*
X141414000Y-92569156D01*
X141414000Y-92509478D01*
X146114000Y-92509478D01*
X146129147Y-92687450D01*
X146129148Y-92687453D01*
X146189197Y-92918078D01*
X146287360Y-93135241D01*
X146287362Y-93135244D01*
X146420812Y-93332688D01*
X146420814Y-93332690D01*
X146585706Y-93504736D01*
X146777316Y-93646450D01*
X146990115Y-93753741D01*
X147217987Y-93823526D01*
X147217985Y-93823526D01*
X147264000Y-93829418D01*
X147264000Y-92733686D01*
X147304156Y-92759493D01*
X147442111Y-92800000D01*
X147585889Y-92800000D01*
X147723844Y-92759493D01*
X147764000Y-92733686D01*
X147764000Y-93828264D01*
X147925434Y-93793473D01*
X148146562Y-93704616D01*
X148349494Y-93579666D01*
X148528389Y-93422219D01*
X148528396Y-93422213D01*
X148678102Y-93236805D01*
X148678109Y-93236795D01*
X148794331Y-93028751D01*
X148873722Y-92804052D01*
X148873726Y-92804038D01*
X148913999Y-92569167D01*
X148914000Y-92569156D01*
X148914000Y-91800000D01*
X148014000Y-91800000D01*
X148014000Y-91300000D01*
X148914000Y-91300000D01*
X148914000Y-90590522D01*
X148898852Y-90412549D01*
X148898851Y-90412546D01*
X148838802Y-90181921D01*
X148740639Y-89964758D01*
X148740637Y-89964755D01*
X148607187Y-89767311D01*
X148607185Y-89767309D01*
X148442293Y-89595263D01*
X148250683Y-89453549D01*
X148037884Y-89346257D01*
X147810020Y-89276475D01*
X147764000Y-89270581D01*
X147764000Y-90366313D01*
X147723844Y-90340507D01*
X147585889Y-90300000D01*
X147442111Y-90300000D01*
X147304156Y-90340507D01*
X147264000Y-90366313D01*
X147264000Y-89271734D01*
X147263999Y-89271734D01*
X147102566Y-89306525D01*
X146881437Y-89395383D01*
X146678505Y-89520333D01*
X146499610Y-89677780D01*
X146499603Y-89677786D01*
X146349897Y-89863194D01*
X146349890Y-89863204D01*
X146233668Y-90071248D01*
X146154277Y-90295947D01*
X146154273Y-90295961D01*
X146114000Y-90530832D01*
X146114000Y-91300000D01*
X147014000Y-91300000D01*
X147014000Y-91800000D01*
X146114000Y-91800000D01*
X146114000Y-92509478D01*
X141414000Y-92509478D01*
X141414000Y-91800000D01*
X140514000Y-91800000D01*
X140514000Y-91300000D01*
X141414000Y-91300000D01*
X141414000Y-90590522D01*
X141398852Y-90412549D01*
X141398851Y-90412546D01*
X141338802Y-90181921D01*
X141240639Y-89964758D01*
X141240637Y-89964755D01*
X141107187Y-89767311D01*
X141107185Y-89767309D01*
X140942293Y-89595263D01*
X140750683Y-89453549D01*
X140537884Y-89346257D01*
X140310020Y-89276475D01*
X140264000Y-89270581D01*
X140264000Y-90366313D01*
X140223844Y-90340507D01*
X140085889Y-90300000D01*
X139942111Y-90300000D01*
X139804156Y-90340507D01*
X139764000Y-90366313D01*
X139764000Y-89271734D01*
X139763999Y-89271734D01*
X139602566Y-89306525D01*
X139381437Y-89395383D01*
X139178505Y-89520333D01*
X138999610Y-89677780D01*
X138999603Y-89677786D01*
X138849897Y-89863194D01*
X138849890Y-89863204D01*
X138733668Y-90071248D01*
X138654277Y-90295947D01*
X138654273Y-90295961D01*
X138614000Y-90530832D01*
X138614000Y-91300000D01*
X139514000Y-91300000D01*
X139514000Y-91800000D01*
X138614000Y-91800000D01*
X138614000Y-92509478D01*
X134181946Y-92509478D01*
X134181999Y-92509167D01*
X134182000Y-92509156D01*
X134182000Y-91740000D01*
X133282000Y-91740000D01*
X133282000Y-91240000D01*
X134182000Y-91240000D01*
X134182000Y-90530522D01*
X134166852Y-90352549D01*
X134166851Y-90352546D01*
X134106802Y-90121921D01*
X134008639Y-89904758D01*
X134008637Y-89904755D01*
X133875187Y-89707311D01*
X133875185Y-89707309D01*
X133710293Y-89535263D01*
X133518683Y-89393549D01*
X133305884Y-89286257D01*
X133078020Y-89216475D01*
X133032000Y-89210581D01*
X133032000Y-90306313D01*
X132991844Y-90280507D01*
X132853889Y-90240000D01*
X132710111Y-90240000D01*
X132572156Y-90280507D01*
X132532000Y-90306313D01*
X132532000Y-89211734D01*
X132531999Y-89211734D01*
X132370566Y-89246525D01*
X132149437Y-89335383D01*
X131946505Y-89460333D01*
X131767610Y-89617780D01*
X131767603Y-89617786D01*
X131617897Y-89803194D01*
X131617890Y-89803204D01*
X131501668Y-90011248D01*
X131422277Y-90235947D01*
X131422273Y-90235961D01*
X131382000Y-90470832D01*
X131382000Y-91240000D01*
X132282000Y-91240000D01*
X132282000Y-91740000D01*
X131382000Y-91740000D01*
X131382000Y-92449478D01*
X126682000Y-92449478D01*
X126682000Y-91740000D01*
X125782000Y-91740000D01*
X125782000Y-91240000D01*
X126682000Y-91240000D01*
X126682000Y-90530522D01*
X126666852Y-90352549D01*
X126666851Y-90352546D01*
X126606802Y-90121921D01*
X126508639Y-89904758D01*
X126508637Y-89904755D01*
X126375187Y-89707311D01*
X126375185Y-89707309D01*
X126210293Y-89535263D01*
X126018683Y-89393549D01*
X125805884Y-89286257D01*
X125578020Y-89216475D01*
X125532000Y-89210581D01*
X125532000Y-90306313D01*
X125491844Y-90280507D01*
X125353889Y-90240000D01*
X125210111Y-90240000D01*
X125072156Y-90280507D01*
X125032000Y-90306313D01*
X125032000Y-89211734D01*
X125031999Y-89211734D01*
X124870566Y-89246525D01*
X124649437Y-89335383D01*
X124446505Y-89460333D01*
X124267610Y-89617780D01*
X124267603Y-89617786D01*
X124117897Y-89803194D01*
X124117890Y-89803204D01*
X124001668Y-90011248D01*
X123922277Y-90235947D01*
X123922273Y-90235961D01*
X123882000Y-90470832D01*
X123882000Y-91240000D01*
X124782000Y-91240000D01*
X124782000Y-91740000D01*
X123882000Y-91740000D01*
X123882000Y-92449478D01*
X118110500Y-92449478D01*
X118110500Y-80374000D01*
X127364540Y-80374000D01*
X127384326Y-80562256D01*
X127384327Y-80562259D01*
X127442818Y-80742277D01*
X127442821Y-80742284D01*
X127537467Y-80906216D01*
X127618559Y-80996277D01*
X127664129Y-81046888D01*
X127817265Y-81158148D01*
X127817270Y-81158151D01*
X127990192Y-81235142D01*
X127990197Y-81235144D01*
X128175354Y-81274500D01*
X128175355Y-81274500D01*
X128364644Y-81274500D01*
X128364646Y-81274500D01*
X128549803Y-81235144D01*
X128722730Y-81158151D01*
X128875871Y-81046888D01*
X129002533Y-80906216D01*
X129097179Y-80742284D01*
X129155674Y-80562256D01*
X129175460Y-80374000D01*
X129155674Y-80185744D01*
X129097179Y-80005716D01*
X129002533Y-79841784D01*
X128935068Y-79766857D01*
X128902350Y-79730519D01*
X128872120Y-79667527D01*
X128870500Y-79647547D01*
X128870500Y-78134097D01*
X128890185Y-78067058D01*
X128906819Y-78046416D01*
X129960416Y-76992819D01*
X130021739Y-76959334D01*
X130048097Y-76956500D01*
X130142644Y-76956500D01*
X130142646Y-76956500D01*
X130327803Y-76917144D01*
X130500730Y-76840151D01*
X130653871Y-76728888D01*
X130780533Y-76588216D01*
X130875179Y-76424284D01*
X130933674Y-76244256D01*
X130953460Y-76056000D01*
X130933674Y-75867744D01*
X130875179Y-75687716D01*
X130780533Y-75523784D01*
X130653871Y-75383112D01*
X130653870Y-75383111D01*
X130500734Y-75271851D01*
X130500729Y-75271848D01*
X130327807Y-75194857D01*
X130327802Y-75194855D01*
X130156849Y-75158519D01*
X130142646Y-75155500D01*
X129953354Y-75155500D01*
X129939151Y-75158519D01*
X129768197Y-75194855D01*
X129768192Y-75194857D01*
X129595270Y-75271848D01*
X129595265Y-75271851D01*
X129442129Y-75383111D01*
X129315466Y-75523785D01*
X129220821Y-75687715D01*
X129220818Y-75687722D01*
X129162327Y-75867740D01*
X129162326Y-75867744D01*
X129142540Y-76056000D01*
X129142540Y-76056002D01*
X129142540Y-76060862D01*
X129122855Y-76127901D01*
X129106221Y-76148543D01*
X127876096Y-77378668D01*
X127869993Y-77384020D01*
X127841719Y-77405716D01*
X127817550Y-77437215D01*
X127745461Y-77531162D01*
X127745461Y-77531163D01*
X127684957Y-77677234D01*
X127684955Y-77677239D01*
X127664318Y-77833998D01*
X127664318Y-77833999D01*
X127668969Y-77869326D01*
X127669500Y-77877428D01*
X127669500Y-79647547D01*
X127649815Y-79714586D01*
X127637650Y-79730519D01*
X127537466Y-79841785D01*
X127442821Y-80005715D01*
X127442818Y-80005722D01*
X127384327Y-80185740D01*
X127384326Y-80185744D01*
X127364540Y-80374000D01*
X118110500Y-80374000D01*
X118110500Y-63792500D01*
X127110540Y-63792500D01*
X127130326Y-63980756D01*
X127130327Y-63980759D01*
X127188818Y-64160777D01*
X127188821Y-64160784D01*
X127283467Y-64324716D01*
X127306098Y-64349850D01*
X127410129Y-64465388D01*
X127563265Y-64576648D01*
X127563270Y-64576651D01*
X127736192Y-64653642D01*
X127736197Y-64653644D01*
X127921354Y-64693000D01*
X127921355Y-64693000D01*
X127927711Y-64694351D01*
X127927410Y-64695766D01*
X127985069Y-64719484D01*
X128025058Y-64776778D01*
X128031500Y-64816226D01*
X128031500Y-71352257D01*
X128030969Y-71360359D01*
X128026318Y-71395685D01*
X128026318Y-71395686D01*
X128031500Y-71435046D01*
X128046955Y-71552446D01*
X128046956Y-71552448D01*
X128088550Y-71652866D01*
X128107464Y-71698527D01*
X128203718Y-71823968D01*
X128231995Y-71845666D01*
X128238085Y-71851006D01*
X129982796Y-73595716D01*
X131581317Y-75194237D01*
X131614802Y-75255560D01*
X131609818Y-75325252D01*
X131567946Y-75381185D01*
X131566521Y-75382236D01*
X131512501Y-75421483D01*
X131385838Y-75562157D01*
X131291193Y-75726087D01*
X131291190Y-75726094D01*
X131232699Y-75906112D01*
X131232698Y-75906116D01*
X131212912Y-76094372D01*
X131232698Y-76282628D01*
X131232699Y-76282631D01*
X131291190Y-76462649D01*
X131291193Y-76462656D01*
X131385839Y-76626588D01*
X131454191Y-76702500D01*
X131486022Y-76737852D01*
X131516252Y-76800843D01*
X131517872Y-76820824D01*
X131517872Y-77574943D01*
X131517341Y-77583045D01*
X131512690Y-77618371D01*
X131512690Y-77618372D01*
X131517872Y-77657732D01*
X131533327Y-77775132D01*
X131533328Y-77775134D01*
X131593836Y-77921213D01*
X131690090Y-78046654D01*
X131718367Y-78068352D01*
X131724457Y-78073692D01*
X133032979Y-79382214D01*
X134186221Y-80535456D01*
X134219706Y-80596779D01*
X134222540Y-80623137D01*
X134222540Y-80627997D01*
X134222540Y-80628000D01*
X134242326Y-80816256D01*
X134242327Y-80816259D01*
X134300818Y-80996277D01*
X134300821Y-80996284D01*
X134395467Y-81160216D01*
X134462931Y-81235142D01*
X134522129Y-81300888D01*
X134675265Y-81412148D01*
X134675270Y-81412151D01*
X134848192Y-81489142D01*
X134848197Y-81489144D01*
X135033354Y-81528500D01*
X135033355Y-81528500D01*
X135222644Y-81528500D01*
X135222646Y-81528500D01*
X135407803Y-81489144D01*
X135580730Y-81412151D01*
X135733871Y-81300888D01*
X135860533Y-81160216D01*
X135955179Y-80996284D01*
X136013674Y-80816256D01*
X136033460Y-80628000D01*
X136013674Y-80439744D01*
X135955179Y-80259716D01*
X135860533Y-80095784D01*
X135733871Y-79955112D01*
X135733870Y-79955111D01*
X135580734Y-79843851D01*
X135580729Y-79843848D01*
X135407807Y-79766857D01*
X135407802Y-79766855D01*
X135236849Y-79730519D01*
X135222646Y-79727500D01*
X135222645Y-79727500D01*
X135128097Y-79727500D01*
X135061058Y-79707815D01*
X135040416Y-79691181D01*
X132755191Y-77405956D01*
X132721706Y-77344633D01*
X132718872Y-77318275D01*
X132718872Y-76820824D01*
X132738557Y-76753785D01*
X132750722Y-76737852D01*
X132782553Y-76702500D01*
X132850905Y-76626588D01*
X132945551Y-76462656D01*
X132972349Y-76380182D01*
X133011787Y-76322506D01*
X133076145Y-76295308D01*
X133090280Y-76294500D01*
X136830518Y-76294500D01*
X136897557Y-76314185D01*
X136916674Y-76330435D01*
X136916921Y-76330161D01*
X136921752Y-76334511D01*
X137074887Y-76445770D01*
X137074892Y-76445773D01*
X137247814Y-76522764D01*
X137247819Y-76522766D01*
X137432976Y-76562122D01*
X137432977Y-76562122D01*
X137622267Y-76562122D01*
X137622268Y-76562122D01*
X137622268Y-76562121D01*
X137628725Y-76561443D01*
X137628989Y-76563956D01*
X137687343Y-76568388D01*
X137743092Y-76610504D01*
X137767222Y-76676075D01*
X137767500Y-76684378D01*
X137767500Y-84683500D01*
X137747815Y-84750539D01*
X137695011Y-84796294D01*
X137643500Y-84807500D01*
X137573354Y-84807500D01*
X137540897Y-84814398D01*
X137388197Y-84846855D01*
X137388192Y-84846857D01*
X137215270Y-84923848D01*
X137215265Y-84923851D01*
X137062129Y-85035111D01*
X136935466Y-85175785D01*
X136840821Y-85339715D01*
X136840818Y-85339722D01*
X136782327Y-85519740D01*
X136782326Y-85519744D01*
X136762540Y-85708000D01*
X136782326Y-85896256D01*
X136782327Y-85896259D01*
X136840818Y-86076277D01*
X136840821Y-86076284D01*
X136935467Y-86240216D01*
X137062129Y-86380888D01*
X137215265Y-86492148D01*
X137215270Y-86492151D01*
X137388192Y-86569142D01*
X137388197Y-86569144D01*
X137573354Y-86608500D01*
X137573355Y-86608500D01*
X137762644Y-86608500D01*
X137762646Y-86608500D01*
X137947803Y-86569144D01*
X138120730Y-86492151D01*
X138273871Y-86380888D01*
X138400533Y-86240216D01*
X138449613Y-86155205D01*
X138500179Y-86106991D01*
X138568786Y-86093767D01*
X138633651Y-86119735D01*
X138664385Y-86155203D01*
X138713466Y-86240214D01*
X138713467Y-86240216D01*
X138840129Y-86380888D01*
X138993265Y-86492148D01*
X138993270Y-86492151D01*
X139166192Y-86569142D01*
X139166197Y-86569144D01*
X139351354Y-86608500D01*
X139351355Y-86608500D01*
X139540644Y-86608500D01*
X139540646Y-86608500D01*
X139725803Y-86569144D01*
X139898730Y-86492151D01*
X140051871Y-86380888D01*
X140178533Y-86240216D01*
X140273179Y-86076284D01*
X140331674Y-85896256D01*
X140351460Y-85708000D01*
X140331674Y-85519744D01*
X140273179Y-85339716D01*
X140178533Y-85175784D01*
X140051871Y-85035112D01*
X140051870Y-85035111D01*
X139898734Y-84923851D01*
X139898729Y-84923848D01*
X139725807Y-84846857D01*
X139725803Y-84846856D01*
X139636718Y-84827920D01*
X139575237Y-84794727D01*
X139541461Y-84733564D01*
X139538500Y-84706630D01*
X139538500Y-78850000D01*
X142350540Y-78850000D01*
X142370326Y-79038256D01*
X142370327Y-79038259D01*
X142428818Y-79218277D01*
X142428821Y-79218284D01*
X142523467Y-79382216D01*
X142650129Y-79522888D01*
X142803265Y-79634148D01*
X142803270Y-79634151D01*
X142976192Y-79711142D01*
X142976197Y-79711144D01*
X143161354Y-79750500D01*
X143161355Y-79750500D01*
X143350644Y-79750500D01*
X143350646Y-79750500D01*
X143535803Y-79711144D01*
X143708730Y-79634151D01*
X143861871Y-79522888D01*
X143988533Y-79382216D01*
X144083179Y-79218284D01*
X144141674Y-79038256D01*
X144161460Y-78850000D01*
X144141674Y-78661744D01*
X144083179Y-78481716D01*
X143988533Y-78317784D01*
X143933628Y-78256806D01*
X143888350Y-78206519D01*
X143858120Y-78143527D01*
X143856500Y-78123547D01*
X143856500Y-77036452D01*
X143876185Y-76969413D01*
X143888350Y-76953480D01*
X143921067Y-76917144D01*
X143988533Y-76842216D01*
X144083179Y-76678284D01*
X144141674Y-76498256D01*
X144161460Y-76310000D01*
X144141674Y-76121744D01*
X144083179Y-75941716D01*
X143988533Y-75777784D01*
X143861871Y-75637112D01*
X143829708Y-75613744D01*
X143708734Y-75525851D01*
X143708729Y-75525848D01*
X143535807Y-75448857D01*
X143535802Y-75448855D01*
X143390001Y-75417865D01*
X143350646Y-75409500D01*
X143161354Y-75409500D01*
X143128897Y-75416398D01*
X142976197Y-75448855D01*
X142976192Y-75448857D01*
X142803270Y-75525848D01*
X142803265Y-75525851D01*
X142650129Y-75637111D01*
X142523466Y-75777785D01*
X142428821Y-75941715D01*
X142428818Y-75941722D01*
X142370327Y-76121740D01*
X142370326Y-76121744D01*
X142350540Y-76310000D01*
X142370326Y-76498256D01*
X142370327Y-76498259D01*
X142428818Y-76678277D01*
X142428821Y-76678284D01*
X142523467Y-76842216D01*
X142590931Y-76917142D01*
X142623650Y-76953480D01*
X142653880Y-77016471D01*
X142655500Y-77036452D01*
X142655500Y-78123547D01*
X142635815Y-78190586D01*
X142623650Y-78206519D01*
X142523466Y-78317785D01*
X142428821Y-78481715D01*
X142428818Y-78481722D01*
X142370327Y-78661740D01*
X142370326Y-78661744D01*
X142350540Y-78850000D01*
X139538500Y-78850000D01*
X139538500Y-76672022D01*
X139558185Y-76604983D01*
X139610989Y-76559228D01*
X139680147Y-76549284D01*
X139735384Y-76571703D01*
X139755266Y-76586148D01*
X139755270Y-76586151D01*
X139928192Y-76663142D01*
X139928197Y-76663144D01*
X140113354Y-76702500D01*
X140113355Y-76702500D01*
X140302644Y-76702500D01*
X140302646Y-76702500D01*
X140487803Y-76663144D01*
X140660730Y-76586151D01*
X140813871Y-76474888D01*
X140940533Y-76334216D01*
X141035179Y-76170284D01*
X141093674Y-75990256D01*
X141113460Y-75802000D01*
X141093674Y-75613744D01*
X141035179Y-75433716D01*
X140940533Y-75269784D01*
X140873068Y-75194857D01*
X140840350Y-75158519D01*
X140810120Y-75095527D01*
X140808500Y-75075547D01*
X140808500Y-67198347D01*
X140809031Y-67190246D01*
X140813682Y-67154920D01*
X140813682Y-67154918D01*
X140799923Y-67050412D01*
X140793044Y-66998158D01*
X140732536Y-66852079D01*
X140696826Y-66805540D01*
X140671633Y-66740373D01*
X140671883Y-66717087D01*
X140672240Y-66713700D01*
X140652454Y-66525444D01*
X140593959Y-66345416D01*
X140499313Y-66181484D01*
X140411511Y-66083970D01*
X140381281Y-66020979D01*
X140389906Y-65951643D01*
X140430772Y-65900682D01*
X140559871Y-65806888D01*
X140686533Y-65666216D01*
X140781179Y-65502284D01*
X140837071Y-65330265D01*
X140876507Y-65272593D01*
X140929216Y-65247297D01*
X140995803Y-65233144D01*
X140995807Y-65233142D01*
X140995808Y-65233142D01*
X141054058Y-65207206D01*
X141168730Y-65156151D01*
X141321871Y-65044888D01*
X141448533Y-64904216D01*
X141543179Y-64740284D01*
X141601674Y-64560256D01*
X141621460Y-64372000D01*
X141601674Y-64183744D01*
X141543179Y-64003716D01*
X141448533Y-63839784D01*
X141445284Y-63834156D01*
X141447317Y-63832981D01*
X141427427Y-63777262D01*
X141443242Y-63709206D01*
X141493341Y-63660504D01*
X141500788Y-63656886D01*
X141503800Y-63655545D01*
X141676727Y-63578552D01*
X141829868Y-63467289D01*
X141956530Y-63326617D01*
X142051176Y-63162685D01*
X142060568Y-63133778D01*
X142090813Y-63084420D01*
X142406417Y-62768816D01*
X142467739Y-62735334D01*
X142494097Y-62732500D01*
X142588644Y-62732500D01*
X142588646Y-62732500D01*
X142773803Y-62693144D01*
X142946730Y-62616151D01*
X143099871Y-62504888D01*
X143226533Y-62364216D01*
X143321179Y-62200284D01*
X143379674Y-62020256D01*
X143399460Y-61832000D01*
X143379674Y-61643744D01*
X143321179Y-61463716D01*
X143226533Y-61299784D01*
X143133986Y-61197000D01*
X143099876Y-61159116D01*
X143099869Y-61159110D01*
X143074093Y-61140383D01*
X143031427Y-61085053D01*
X143025448Y-61015440D01*
X143039588Y-60978071D01*
X143067179Y-60930284D01*
X143125674Y-60750256D01*
X143145460Y-60562000D01*
X143125674Y-60373744D01*
X143067179Y-60193716D01*
X142972533Y-60029784D01*
X142845871Y-59889112D01*
X142813708Y-59865744D01*
X142692734Y-59777851D01*
X142692729Y-59777848D01*
X142519807Y-59700857D01*
X142519802Y-59700855D01*
X142374001Y-59669865D01*
X142334646Y-59661500D01*
X142145354Y-59661500D01*
X142112897Y-59668398D01*
X141960197Y-59700855D01*
X141960192Y-59700857D01*
X141787270Y-59777848D01*
X141787265Y-59777851D01*
X141634129Y-59889111D01*
X141507466Y-60029785D01*
X141412821Y-60193715D01*
X141412818Y-60193722D01*
X141354327Y-60373740D01*
X141354326Y-60373744D01*
X141334540Y-60562000D01*
X141354326Y-60750256D01*
X141354326Y-60750258D01*
X141354537Y-60752258D01*
X141341967Y-60820987D01*
X141318906Y-60852892D01*
X141313725Y-60858074D01*
X141252405Y-60891565D01*
X141226035Y-60894401D01*
X141131487Y-60894401D01*
X141121010Y-60896628D01*
X140946330Y-60933756D01*
X140946325Y-60933758D01*
X140773403Y-61010749D01*
X140773398Y-61010752D01*
X140620262Y-61122012D01*
X140493599Y-61262686D01*
X140398954Y-61426616D01*
X140398951Y-61426623D01*
X140340460Y-61606641D01*
X140340459Y-61606645D01*
X140320673Y-61794901D01*
X140340459Y-61983157D01*
X140340460Y-61983160D01*
X140398954Y-62163186D01*
X140437991Y-62230800D01*
X140454464Y-62298700D01*
X140437992Y-62354799D01*
X140396817Y-62426116D01*
X140338324Y-62606141D01*
X140338323Y-62606145D01*
X140323097Y-62751016D01*
X140318537Y-62794401D01*
X140320799Y-62815920D01*
X140308229Y-62884649D01*
X140260497Y-62935673D01*
X140192757Y-62952791D01*
X140126516Y-62930569D01*
X140109797Y-62916562D01*
X138390235Y-61197000D01*
X136661320Y-59468085D01*
X136655980Y-59461995D01*
X136634282Y-59433718D01*
X136508841Y-59337464D01*
X136362762Y-59276956D01*
X136362760Y-59276955D01*
X136245361Y-59261500D01*
X136206000Y-59256318D01*
X136170670Y-59260969D01*
X136162572Y-59261500D01*
X134826335Y-59261500D01*
X134775899Y-59250779D01*
X134645807Y-59192857D01*
X134645802Y-59192855D01*
X134500001Y-59161865D01*
X134460646Y-59153500D01*
X134271354Y-59153500D01*
X134238897Y-59160398D01*
X134086197Y-59192855D01*
X134086192Y-59192857D01*
X133913270Y-59269848D01*
X133913265Y-59269851D01*
X133760129Y-59381111D01*
X133633466Y-59521785D01*
X133538821Y-59685715D01*
X133538818Y-59685722D01*
X133508884Y-59777851D01*
X133480326Y-59865744D01*
X133460540Y-60054000D01*
X133480326Y-60242256D01*
X133480327Y-60242259D01*
X133538818Y-60422277D01*
X133538821Y-60422284D01*
X133633467Y-60586216D01*
X133760129Y-60726888D01*
X133913265Y-60838148D01*
X133913270Y-60838151D01*
X134086192Y-60915142D01*
X134086197Y-60915144D01*
X134271354Y-60954500D01*
X134271355Y-60954500D01*
X134460644Y-60954500D01*
X134460646Y-60954500D01*
X134645803Y-60915144D01*
X134666534Y-60905913D01*
X134735782Y-60896628D01*
X134799059Y-60926256D01*
X134824356Y-60957192D01*
X134903467Y-61094216D01*
X134913806Y-61105699D01*
X134921307Y-61114030D01*
X134951535Y-61177022D01*
X134942909Y-61246357D01*
X134921307Y-61279970D01*
X134903466Y-61299785D01*
X134808821Y-61463715D01*
X134808818Y-61463722D01*
X134762380Y-61606645D01*
X134750326Y-61643744D01*
X134730540Y-61832000D01*
X134750326Y-62020256D01*
X134750327Y-62020259D01*
X134808818Y-62200277D01*
X134808821Y-62200284D01*
X134903467Y-62364216D01*
X135024400Y-62498525D01*
X135030129Y-62504888D01*
X135183265Y-62616148D01*
X135183270Y-62616151D01*
X135356192Y-62693142D01*
X135356197Y-62693144D01*
X135541354Y-62732500D01*
X135541355Y-62732500D01*
X135730644Y-62732500D01*
X135730646Y-62732500D01*
X135915803Y-62693144D01*
X136004084Y-62653837D01*
X136073333Y-62644552D01*
X136136610Y-62674180D01*
X136142201Y-62679436D01*
X136218221Y-62755456D01*
X136251706Y-62816779D01*
X136254540Y-62843137D01*
X136254540Y-62847997D01*
X136254540Y-62848000D01*
X136274326Y-63036256D01*
X136274327Y-63036259D01*
X136295422Y-63101182D01*
X136297417Y-63171023D01*
X136261337Y-63230856D01*
X136198636Y-63261684D01*
X136177491Y-63263500D01*
X134409428Y-63263500D01*
X134401329Y-63262969D01*
X134366000Y-63258318D01*
X134326639Y-63263500D01*
X134209239Y-63278955D01*
X134209237Y-63278956D01*
X134063157Y-63339464D01*
X133937719Y-63435716D01*
X133916019Y-63463994D01*
X133910668Y-63470096D01*
X132421584Y-64959181D01*
X132360261Y-64992666D01*
X132333903Y-64995500D01*
X132239354Y-64995500D01*
X132206897Y-65002398D01*
X132054197Y-65034855D01*
X132054192Y-65034857D01*
X131881270Y-65111848D01*
X131881265Y-65111851D01*
X131728129Y-65223111D01*
X131601466Y-65363785D01*
X131506821Y-65527715D01*
X131506818Y-65527722D01*
X131498640Y-65552893D01*
X131448326Y-65707744D01*
X131437906Y-65806885D01*
X131428540Y-65896000D01*
X131431119Y-65920540D01*
X131418549Y-65989270D01*
X131370816Y-66040293D01*
X131307798Y-66057500D01*
X130853428Y-66057500D01*
X130845329Y-66056969D01*
X130810000Y-66052318D01*
X130809999Y-66052318D01*
X130653239Y-66072955D01*
X130653237Y-66072956D01*
X130507160Y-66133463D01*
X130381714Y-66229721D01*
X130360024Y-66257990D01*
X130354671Y-66264094D01*
X129844181Y-66774584D01*
X129782858Y-66808069D01*
X129713167Y-66803085D01*
X129657233Y-66761214D01*
X129632816Y-66695749D01*
X129632500Y-66686903D01*
X129632500Y-64518952D01*
X129652185Y-64451913D01*
X129664350Y-64435980D01*
X129764533Y-64324716D01*
X129859179Y-64160784D01*
X129917674Y-63980756D01*
X129937460Y-63792500D01*
X129917674Y-63604244D01*
X129859179Y-63424216D01*
X129764533Y-63260284D01*
X129637871Y-63119612D01*
X129618402Y-63105467D01*
X129484734Y-63008351D01*
X129484729Y-63008348D01*
X129311807Y-62931357D01*
X129311802Y-62931355D01*
X129166001Y-62900365D01*
X129126646Y-62892000D01*
X128937354Y-62892000D01*
X128904897Y-62898898D01*
X128752197Y-62931355D01*
X128752192Y-62931357D01*
X128574436Y-63010501D01*
X128505186Y-63019786D01*
X128473564Y-63010501D01*
X128295807Y-62931357D01*
X128295802Y-62931355D01*
X128150001Y-62900365D01*
X128110646Y-62892000D01*
X127921354Y-62892000D01*
X127888897Y-62898898D01*
X127736197Y-62931355D01*
X127736192Y-62931357D01*
X127563270Y-63008348D01*
X127563265Y-63008351D01*
X127410129Y-63119611D01*
X127283466Y-63260285D01*
X127188821Y-63424215D01*
X127188818Y-63424222D01*
X127130327Y-63604240D01*
X127130326Y-63604244D01*
X127110540Y-63792500D01*
X118110500Y-63792500D01*
X118110500Y-55880000D01*
X118119501Y-55662364D01*
X118128457Y-55457263D01*
X118128869Y-55452349D01*
X118156056Y-55234247D01*
X118183059Y-55029141D01*
X118183835Y-55024588D01*
X118228904Y-54809646D01*
X118273768Y-54607278D01*
X118274865Y-54603044D01*
X118337533Y-54392549D01*
X118342784Y-54375892D01*
X118399945Y-54194602D01*
X118401270Y-54190838D01*
X118481169Y-53986075D01*
X118560640Y-53794216D01*
X118562185Y-53790789D01*
X118658759Y-53593243D01*
X118754712Y-53408921D01*
X118756428Y-53405842D01*
X118869020Y-53216889D01*
X118980794Y-53041441D01*
X118982555Y-53038831D01*
X119110462Y-52859686D01*
X119237169Y-52694559D01*
X119238999Y-52692289D01*
X119381331Y-52524237D01*
X119522951Y-52369686D01*
X119679686Y-52212951D01*
X119834247Y-52071323D01*
X120002289Y-51928999D01*
X120004559Y-51927169D01*
X120169670Y-51800473D01*
X120348831Y-51672555D01*
X120351441Y-51670794D01*
X120526889Y-51559020D01*
X120715842Y-51446428D01*
X120718921Y-51444712D01*
X120903243Y-51348759D01*
X121100789Y-51252185D01*
X121104216Y-51250640D01*
X121296059Y-51171175D01*
X121500838Y-51091270D01*
X121504602Y-51089945D01*
X121685892Y-51032784D01*
X121702550Y-51027533D01*
X121728593Y-51019779D01*
X121913044Y-50964865D01*
X121917278Y-50963768D01*
X122119646Y-50918904D01*
X122334588Y-50873835D01*
X122339141Y-50873059D01*
X122544278Y-50846052D01*
X122762349Y-50818869D01*
X122767263Y-50818457D01*
X122972364Y-50809501D01*
X123190000Y-50800500D01*
X123190500Y-50800500D01*
X149859500Y-50800500D01*
X149860000Y-50800500D01*
X150077525Y-50809496D01*
G37*
%TD.AperFunction*%
%TD*%
M02*
