%TF.GenerationSoftware,KiCad,Pcbnew,7.0.8*%
%TF.CreationDate,2023-12-06T02:43:18-07:00*%
%TF.ProjectId,C3I2,43334932-2e6b-4696-9361-645f70636258,rev?*%
%TF.SameCoordinates,Original*%
%TF.FileFunction,Legend,Top*%
%TF.FilePolarity,Positive*%
%FSLAX46Y46*%
G04 Gerber Fmt 4.6, Leading zero omitted, Abs format (unit mm)*
G04 Created by KiCad (PCBNEW 7.0.8) date 2023-12-06 02:43:18*
%MOMM*%
%LPD*%
G01*
G04 APERTURE LIST*
G04 Aperture macros list*
%AMRoundRect*
0 Rectangle with rounded corners*
0 $1 Rounding radius*
0 $2 $3 $4 $5 $6 $7 $8 $9 X,Y pos of 4 corners*
0 Add a 4 corners polygon primitive as box body*
4,1,4,$2,$3,$4,$5,$6,$7,$8,$9,$2,$3,0*
0 Add four circle primitives for the rounded corners*
1,1,$1+$1,$2,$3*
1,1,$1+$1,$4,$5*
1,1,$1+$1,$6,$7*
1,1,$1+$1,$8,$9*
0 Add four rect primitives between the rounded corners*
20,1,$1+$1,$2,$3,$4,$5,0*
20,1,$1+$1,$4,$5,$6,$7,0*
20,1,$1+$1,$6,$7,$8,$9,0*
20,1,$1+$1,$8,$9,$2,$3,0*%
%AMFreePoly0*
4,1,19,0.000000,0.744911,0.071157,0.744911,0.207708,0.704816,0.327430,0.627875,0.420627,0.520320,0.479746,0.390866,0.500000,0.250000,0.500000,-0.250000,0.479746,-0.390866,0.420627,-0.520320,0.327430,-0.627875,0.207708,-0.704816,0.071157,-0.744911,0.000000,-0.744911,0.000000,-0.750000,-0.500000,-0.750000,-0.500000,0.750000,0.000000,0.750000,0.000000,0.744911,0.000000,0.744911,
$1*%
%AMFreePoly1*
4,1,19,0.500000,-0.750000,0.000000,-0.750000,0.000000,-0.744911,-0.071157,-0.744911,-0.207708,-0.704816,-0.327430,-0.627875,-0.420627,-0.520320,-0.479746,-0.390866,-0.500000,-0.250000,-0.500000,0.250000,-0.479746,0.390866,-0.420627,0.520320,-0.327430,0.627875,-0.207708,0.704816,-0.071157,0.744911,0.000000,0.744911,0.000000,0.750000,0.500000,0.750000,0.500000,-0.750000,0.500000,-0.750000,
$1*%
G04 Aperture macros list end*
%ADD10C,0.300000*%
%ADD11C,0.150000*%
%ADD12C,0.127000*%
%ADD13C,0.200000*%
%ADD14C,0.152400*%
%ADD15C,0.120000*%
%ADD16C,0.508000*%
%ADD17RoundRect,0.102000X0.525000X0.650000X-0.525000X0.650000X-0.525000X-0.650000X0.525000X-0.650000X0*%
%ADD18R,1.003300X0.508000*%
%ADD19R,3.759200X3.759200*%
%ADD20R,0.254000X0.914400*%
%ADD21R,0.914400X0.254000*%
%ADD22RoundRect,0.250000X0.450000X-0.262500X0.450000X0.262500X-0.450000X0.262500X-0.450000X-0.262500X0*%
%ADD23FreePoly0,270.000000*%
%ADD24FreePoly1,270.000000*%
%ADD25FreePoly1,90.000000*%
%ADD26FreePoly0,90.000000*%
%ADD27O,2.004000X3.804000*%
%ADD28O,4.404000X2.304000*%
%ADD29R,0.609600X2.006600*%
%ADD30R,2.667000X3.606800*%
%ADD31RoundRect,0.243750X0.243750X0.456250X-0.243750X0.456250X-0.243750X-0.456250X0.243750X-0.456250X0*%
%ADD32RoundRect,0.140000X-0.021213X0.219203X-0.219203X0.021213X0.021213X-0.219203X0.219203X-0.021213X0*%
%ADD33RoundRect,0.140000X-0.170000X0.140000X-0.170000X-0.140000X0.170000X-0.140000X0.170000X0.140000X0*%
%ADD34RoundRect,0.140000X-0.140000X-0.170000X0.140000X-0.170000X0.140000X0.170000X-0.140000X0.170000X0*%
%ADD35RoundRect,0.140000X0.170000X-0.140000X0.170000X0.140000X-0.170000X0.140000X-0.170000X-0.140000X0*%
%ADD36RoundRect,0.140000X0.021213X-0.219203X0.219203X-0.021213X-0.021213X0.219203X-0.219203X0.021213X0*%
%ADD37RoundRect,0.140000X0.140000X0.170000X-0.140000X0.170000X-0.140000X-0.170000X0.140000X-0.170000X0*%
G04 APERTURE END LIST*
D10*
X123335600Y-73587368D02*
X123264171Y-73444510D01*
X123264171Y-73444510D02*
X123264171Y-73158796D01*
X123264171Y-73158796D02*
X123335600Y-73015939D01*
X123335600Y-73015939D02*
X123407028Y-72944510D01*
X123407028Y-72944510D02*
X123549885Y-72873082D01*
X123549885Y-72873082D02*
X123978457Y-72873082D01*
X123978457Y-72873082D02*
X124121314Y-72944510D01*
X124121314Y-72944510D02*
X124192742Y-73015939D01*
X124192742Y-73015939D02*
X124264171Y-73158796D01*
X124264171Y-73158796D02*
X124264171Y-73444510D01*
X124264171Y-73444510D02*
X124192742Y-73587368D01*
X124764171Y-74087367D02*
X124764171Y-75015939D01*
X124764171Y-75015939D02*
X124192742Y-74515939D01*
X124192742Y-74515939D02*
X124192742Y-74730224D01*
X124192742Y-74730224D02*
X124121314Y-74873082D01*
X124121314Y-74873082D02*
X124049885Y-74944510D01*
X124049885Y-74944510D02*
X123907028Y-75015939D01*
X123907028Y-75015939D02*
X123549885Y-75015939D01*
X123549885Y-75015939D02*
X123407028Y-74944510D01*
X123407028Y-74944510D02*
X123335600Y-74873082D01*
X123335600Y-74873082D02*
X123264171Y-74730224D01*
X123264171Y-74730224D02*
X123264171Y-74301653D01*
X123264171Y-74301653D02*
X123335600Y-74158796D01*
X123335600Y-74158796D02*
X123407028Y-74087367D01*
X123264171Y-75658795D02*
X124264171Y-75658795D01*
X124764171Y-75658795D02*
X124692742Y-75587367D01*
X124692742Y-75587367D02*
X124621314Y-75658795D01*
X124621314Y-75658795D02*
X124692742Y-75730224D01*
X124692742Y-75730224D02*
X124764171Y-75658795D01*
X124764171Y-75658795D02*
X124621314Y-75658795D01*
X124264171Y-77373081D02*
X123264171Y-77730224D01*
X123264171Y-77730224D02*
X124264171Y-78087367D01*
X123264171Y-79444510D02*
X123264171Y-78587367D01*
X123264171Y-79015938D02*
X124764171Y-79015938D01*
X124764171Y-79015938D02*
X124549885Y-78873081D01*
X124549885Y-78873081D02*
X124407028Y-78730224D01*
X124407028Y-78730224D02*
X124335600Y-78587367D01*
X123407028Y-80087366D02*
X123335600Y-80158795D01*
X123335600Y-80158795D02*
X123264171Y-80087366D01*
X123264171Y-80087366D02*
X123335600Y-80015938D01*
X123335600Y-80015938D02*
X123407028Y-80087366D01*
X123407028Y-80087366D02*
X123264171Y-80087366D01*
X123264171Y-81587367D02*
X123264171Y-80730224D01*
X123264171Y-81158795D02*
X124764171Y-81158795D01*
X124764171Y-81158795D02*
X124549885Y-81015938D01*
X124549885Y-81015938D02*
X124407028Y-80873081D01*
X124407028Y-80873081D02*
X124335600Y-80730224D01*
X120849171Y-72944510D02*
X122349171Y-72944510D01*
X121777742Y-72944510D02*
X121849171Y-73087368D01*
X121849171Y-73087368D02*
X121849171Y-73373082D01*
X121849171Y-73373082D02*
X121777742Y-73515939D01*
X121777742Y-73515939D02*
X121706314Y-73587368D01*
X121706314Y-73587368D02*
X121563457Y-73658796D01*
X121563457Y-73658796D02*
X121134885Y-73658796D01*
X121134885Y-73658796D02*
X120992028Y-73587368D01*
X120992028Y-73587368D02*
X120920600Y-73515939D01*
X120920600Y-73515939D02*
X120849171Y-73373082D01*
X120849171Y-73373082D02*
X120849171Y-73087368D01*
X120849171Y-73087368D02*
X120920600Y-72944510D01*
X121849171Y-74158796D02*
X120849171Y-74515939D01*
X121849171Y-74873082D02*
X120849171Y-74515939D01*
X120849171Y-74515939D02*
X120492028Y-74373082D01*
X120492028Y-74373082D02*
X120420600Y-74301653D01*
X120420600Y-74301653D02*
X120349171Y-74158796D01*
X121849171Y-76587367D02*
X120563457Y-76587367D01*
X120563457Y-76587367D02*
X120420600Y-76515939D01*
X120420600Y-76515939D02*
X120349171Y-76373082D01*
X120349171Y-76373082D02*
X120349171Y-76301653D01*
X122349171Y-76587367D02*
X122277742Y-76515939D01*
X122277742Y-76515939D02*
X122206314Y-76587367D01*
X122206314Y-76587367D02*
X122277742Y-76658796D01*
X122277742Y-76658796D02*
X122349171Y-76587367D01*
X122349171Y-76587367D02*
X122206314Y-76587367D01*
X120920600Y-77873082D02*
X120849171Y-77730225D01*
X120849171Y-77730225D02*
X120849171Y-77444511D01*
X120849171Y-77444511D02*
X120920600Y-77301653D01*
X120920600Y-77301653D02*
X121063457Y-77230225D01*
X121063457Y-77230225D02*
X121634885Y-77230225D01*
X121634885Y-77230225D02*
X121777742Y-77301653D01*
X121777742Y-77301653D02*
X121849171Y-77444511D01*
X121849171Y-77444511D02*
X121849171Y-77730225D01*
X121849171Y-77730225D02*
X121777742Y-77873082D01*
X121777742Y-77873082D02*
X121634885Y-77944511D01*
X121634885Y-77944511D02*
X121492028Y-77944511D01*
X121492028Y-77944511D02*
X121349171Y-77230225D01*
X120920600Y-78515939D02*
X120849171Y-78658796D01*
X120849171Y-78658796D02*
X120849171Y-78944510D01*
X120849171Y-78944510D02*
X120920600Y-79087367D01*
X120920600Y-79087367D02*
X121063457Y-79158796D01*
X121063457Y-79158796D02*
X121134885Y-79158796D01*
X121134885Y-79158796D02*
X121277742Y-79087367D01*
X121277742Y-79087367D02*
X121349171Y-78944510D01*
X121349171Y-78944510D02*
X121349171Y-78730225D01*
X121349171Y-78730225D02*
X121420600Y-78587367D01*
X121420600Y-78587367D02*
X121563457Y-78515939D01*
X121563457Y-78515939D02*
X121634885Y-78515939D01*
X121634885Y-78515939D02*
X121777742Y-78587367D01*
X121777742Y-78587367D02*
X121849171Y-78730225D01*
X121849171Y-78730225D02*
X121849171Y-78944510D01*
X121849171Y-78944510D02*
X121777742Y-79087367D01*
X120920600Y-79730225D02*
X120849171Y-79873082D01*
X120849171Y-79873082D02*
X120849171Y-80158796D01*
X120849171Y-80158796D02*
X120920600Y-80301653D01*
X120920600Y-80301653D02*
X121063457Y-80373082D01*
X121063457Y-80373082D02*
X121134885Y-80373082D01*
X121134885Y-80373082D02*
X121277742Y-80301653D01*
X121277742Y-80301653D02*
X121349171Y-80158796D01*
X121349171Y-80158796D02*
X121349171Y-79944511D01*
X121349171Y-79944511D02*
X121420600Y-79801653D01*
X121420600Y-79801653D02*
X121563457Y-79730225D01*
X121563457Y-79730225D02*
X121634885Y-79730225D01*
X121634885Y-79730225D02*
X121777742Y-79801653D01*
X121777742Y-79801653D02*
X121849171Y-79944511D01*
X121849171Y-79944511D02*
X121849171Y-80158796D01*
X121849171Y-80158796D02*
X121777742Y-80301653D01*
X120849171Y-81015939D02*
X121849171Y-81015939D01*
X122349171Y-81015939D02*
X122277742Y-80944511D01*
X122277742Y-80944511D02*
X122206314Y-81015939D01*
X122206314Y-81015939D02*
X122277742Y-81087368D01*
X122277742Y-81087368D02*
X122349171Y-81015939D01*
X122349171Y-81015939D02*
X122206314Y-81015939D01*
X120849171Y-81730225D02*
X122349171Y-81730225D01*
X121777742Y-81730225D02*
X121849171Y-81873083D01*
X121849171Y-81873083D02*
X121849171Y-82158797D01*
X121849171Y-82158797D02*
X121777742Y-82301654D01*
X121777742Y-82301654D02*
X121706314Y-82373083D01*
X121706314Y-82373083D02*
X121563457Y-82444511D01*
X121563457Y-82444511D02*
X121134885Y-82444511D01*
X121134885Y-82444511D02*
X120992028Y-82373083D01*
X120992028Y-82373083D02*
X120920600Y-82301654D01*
X120920600Y-82301654D02*
X120849171Y-82158797D01*
X120849171Y-82158797D02*
X120849171Y-81873083D01*
X120849171Y-81873083D02*
X120920600Y-81730225D01*
X120920600Y-83658797D02*
X120849171Y-83515940D01*
X120849171Y-83515940D02*
X120849171Y-83230226D01*
X120849171Y-83230226D02*
X120920600Y-83087368D01*
X120920600Y-83087368D02*
X121063457Y-83015940D01*
X121063457Y-83015940D02*
X121634885Y-83015940D01*
X121634885Y-83015940D02*
X121777742Y-83087368D01*
X121777742Y-83087368D02*
X121849171Y-83230226D01*
X121849171Y-83230226D02*
X121849171Y-83515940D01*
X121849171Y-83515940D02*
X121777742Y-83658797D01*
X121777742Y-83658797D02*
X121634885Y-83730226D01*
X121634885Y-83730226D02*
X121492028Y-83730226D01*
X121492028Y-83730226D02*
X121349171Y-83015940D01*
X120849171Y-84587368D02*
X120920600Y-84444511D01*
X120920600Y-84444511D02*
X121063457Y-84373082D01*
X121063457Y-84373082D02*
X122349171Y-84373082D01*
X120849171Y-85373082D02*
X120920600Y-85230225D01*
X120920600Y-85230225D02*
X121063457Y-85158796D01*
X121063457Y-85158796D02*
X122349171Y-85158796D01*
D11*
X149524657Y-66133038D02*
X149524657Y-66942561D01*
X149524657Y-66942561D02*
X149572276Y-67037799D01*
X149572276Y-67037799D02*
X149619895Y-67085419D01*
X149619895Y-67085419D02*
X149715133Y-67133038D01*
X149715133Y-67133038D02*
X149905609Y-67133038D01*
X149905609Y-67133038D02*
X150000847Y-67085419D01*
X150000847Y-67085419D02*
X150048466Y-67037799D01*
X150048466Y-67037799D02*
X150096085Y-66942561D01*
X150096085Y-66942561D02*
X150096085Y-66133038D01*
X150477038Y-66133038D02*
X151096085Y-66133038D01*
X151096085Y-66133038D02*
X150762752Y-66513990D01*
X150762752Y-66513990D02*
X150905609Y-66513990D01*
X150905609Y-66513990D02*
X151000847Y-66561609D01*
X151000847Y-66561609D02*
X151048466Y-66609228D01*
X151048466Y-66609228D02*
X151096085Y-66704466D01*
X151096085Y-66704466D02*
X151096085Y-66942561D01*
X151096085Y-66942561D02*
X151048466Y-67037799D01*
X151048466Y-67037799D02*
X151000847Y-67085419D01*
X151000847Y-67085419D02*
X150905609Y-67133038D01*
X150905609Y-67133038D02*
X150619895Y-67133038D01*
X150619895Y-67133038D02*
X150524657Y-67085419D01*
X150524657Y-67085419D02*
X150477038Y-67037799D01*
X148590000Y-68713819D02*
X148590000Y-68951914D01*
X148351905Y-68856676D02*
X148590000Y-68951914D01*
X148590000Y-68951914D02*
X148828095Y-68856676D01*
X148447143Y-69142390D02*
X148590000Y-68951914D01*
X148590000Y-68951914D02*
X148732857Y-69142390D01*
X148589999Y-69804180D02*
X148589999Y-69566085D01*
X148828094Y-69661323D02*
X148589999Y-69566085D01*
X148589999Y-69566085D02*
X148351904Y-69661323D01*
X148732856Y-69375609D02*
X148589999Y-69566085D01*
X148589999Y-69566085D02*
X148447142Y-69375609D01*
X149584713Y-71117705D02*
X149584713Y-71927228D01*
X149584713Y-71927228D02*
X149632332Y-72022466D01*
X149632332Y-72022466D02*
X149679951Y-72070086D01*
X149679951Y-72070086D02*
X149775189Y-72117705D01*
X149775189Y-72117705D02*
X149965665Y-72117705D01*
X149965665Y-72117705D02*
X150060903Y-72070086D01*
X150060903Y-72070086D02*
X150108522Y-72022466D01*
X150108522Y-72022466D02*
X150156141Y-71927228D01*
X150156141Y-71927228D02*
X150156141Y-71117705D01*
X150584713Y-71212943D02*
X150632332Y-71165324D01*
X150632332Y-71165324D02*
X150727570Y-71117705D01*
X150727570Y-71117705D02*
X150965665Y-71117705D01*
X150965665Y-71117705D02*
X151060903Y-71165324D01*
X151060903Y-71165324D02*
X151108522Y-71212943D01*
X151108522Y-71212943D02*
X151156141Y-71308181D01*
X151156141Y-71308181D02*
X151156141Y-71403419D01*
X151156141Y-71403419D02*
X151108522Y-71546276D01*
X151108522Y-71546276D02*
X150537094Y-72117705D01*
X150537094Y-72117705D02*
X151156141Y-72117705D01*
X148672550Y-73793819D02*
X148672550Y-74031914D01*
X148434455Y-73936676D02*
X148672550Y-74031914D01*
X148672550Y-74031914D02*
X148910645Y-73936676D01*
X148529693Y-74222390D02*
X148672550Y-74031914D01*
X148672550Y-74031914D02*
X148815407Y-74222390D01*
X148672549Y-74884180D02*
X148672549Y-74646085D01*
X148910644Y-74741323D02*
X148672549Y-74646085D01*
X148672549Y-74646085D02*
X148434454Y-74741323D01*
X148815406Y-74455609D02*
X148672549Y-74646085D01*
X148672549Y-74646085D02*
X148529692Y-74455609D01*
X139992099Y-72759180D02*
X139992099Y-72521085D01*
X140230194Y-72616323D02*
X139992099Y-72521085D01*
X139992099Y-72521085D02*
X139754004Y-72616323D01*
X140134956Y-72330609D02*
X139992099Y-72521085D01*
X139992099Y-72521085D02*
X139849242Y-72330609D01*
X139992100Y-71668819D02*
X139992100Y-71906914D01*
X139754005Y-71811676D02*
X139992100Y-71906914D01*
X139992100Y-71906914D02*
X140230195Y-71811676D01*
X139849243Y-72097390D02*
X139992100Y-71906914D01*
X139992100Y-71906914D02*
X140134957Y-72097390D01*
X136411134Y-80974513D02*
X136077801Y-80498322D01*
X135839706Y-80974513D02*
X135839706Y-79974513D01*
X135839706Y-79974513D02*
X136220658Y-79974513D01*
X136220658Y-79974513D02*
X136315896Y-80022132D01*
X136315896Y-80022132D02*
X136363515Y-80069751D01*
X136363515Y-80069751D02*
X136411134Y-80164989D01*
X136411134Y-80164989D02*
X136411134Y-80307846D01*
X136411134Y-80307846D02*
X136363515Y-80403084D01*
X136363515Y-80403084D02*
X136315896Y-80450703D01*
X136315896Y-80450703D02*
X136220658Y-80498322D01*
X136220658Y-80498322D02*
X135839706Y-80498322D01*
X137363515Y-80974513D02*
X136792087Y-80974513D01*
X137077801Y-80974513D02*
X137077801Y-79974513D01*
X137077801Y-79974513D02*
X136982563Y-80117370D01*
X136982563Y-80117370D02*
X136887325Y-80212608D01*
X136887325Y-80212608D02*
X136792087Y-80260227D01*
X137982563Y-79974513D02*
X138077801Y-79974513D01*
X138077801Y-79974513D02*
X138173039Y-80022132D01*
X138173039Y-80022132D02*
X138220658Y-80069751D01*
X138220658Y-80069751D02*
X138268277Y-80164989D01*
X138268277Y-80164989D02*
X138315896Y-80355465D01*
X138315896Y-80355465D02*
X138315896Y-80593560D01*
X138315896Y-80593560D02*
X138268277Y-80784036D01*
X138268277Y-80784036D02*
X138220658Y-80879274D01*
X138220658Y-80879274D02*
X138173039Y-80926894D01*
X138173039Y-80926894D02*
X138077801Y-80974513D01*
X138077801Y-80974513D02*
X137982563Y-80974513D01*
X137982563Y-80974513D02*
X137887325Y-80926894D01*
X137887325Y-80926894D02*
X137839706Y-80879274D01*
X137839706Y-80879274D02*
X137792087Y-80784036D01*
X137792087Y-80784036D02*
X137744468Y-80593560D01*
X137744468Y-80593560D02*
X137744468Y-80355465D01*
X137744468Y-80355465D02*
X137792087Y-80164989D01*
X137792087Y-80164989D02*
X137839706Y-80069751D01*
X137839706Y-80069751D02*
X137887325Y-80022132D01*
X137887325Y-80022132D02*
X137982563Y-79974513D01*
X134453333Y-81041052D02*
X134120000Y-80564861D01*
X133881905Y-81041052D02*
X133881905Y-80041052D01*
X133881905Y-80041052D02*
X134262857Y-80041052D01*
X134262857Y-80041052D02*
X134358095Y-80088671D01*
X134358095Y-80088671D02*
X134405714Y-80136290D01*
X134405714Y-80136290D02*
X134453333Y-80231528D01*
X134453333Y-80231528D02*
X134453333Y-80374385D01*
X134453333Y-80374385D02*
X134405714Y-80469623D01*
X134405714Y-80469623D02*
X134358095Y-80517242D01*
X134358095Y-80517242D02*
X134262857Y-80564861D01*
X134262857Y-80564861D02*
X133881905Y-80564861D01*
X134929524Y-81041052D02*
X135120000Y-81041052D01*
X135120000Y-81041052D02*
X135215238Y-80993433D01*
X135215238Y-80993433D02*
X135262857Y-80945813D01*
X135262857Y-80945813D02*
X135358095Y-80802956D01*
X135358095Y-80802956D02*
X135405714Y-80612480D01*
X135405714Y-80612480D02*
X135405714Y-80231528D01*
X135405714Y-80231528D02*
X135358095Y-80136290D01*
X135358095Y-80136290D02*
X135310476Y-80088671D01*
X135310476Y-80088671D02*
X135215238Y-80041052D01*
X135215238Y-80041052D02*
X135024762Y-80041052D01*
X135024762Y-80041052D02*
X134929524Y-80088671D01*
X134929524Y-80088671D02*
X134881905Y-80136290D01*
X134881905Y-80136290D02*
X134834286Y-80231528D01*
X134834286Y-80231528D02*
X134834286Y-80469623D01*
X134834286Y-80469623D02*
X134881905Y-80564861D01*
X134881905Y-80564861D02*
X134929524Y-80612480D01*
X134929524Y-80612480D02*
X135024762Y-80660099D01*
X135024762Y-80660099D02*
X135215238Y-80660099D01*
X135215238Y-80660099D02*
X135310476Y-80612480D01*
X135310476Y-80612480D02*
X135358095Y-80564861D01*
X135358095Y-80564861D02*
X135405714Y-80469623D01*
X141678117Y-80952333D02*
X141344784Y-80476142D01*
X141106689Y-80952333D02*
X141106689Y-79952333D01*
X141106689Y-79952333D02*
X141487641Y-79952333D01*
X141487641Y-79952333D02*
X141582879Y-79999952D01*
X141582879Y-79999952D02*
X141630498Y-80047571D01*
X141630498Y-80047571D02*
X141678117Y-80142809D01*
X141678117Y-80142809D02*
X141678117Y-80285666D01*
X141678117Y-80285666D02*
X141630498Y-80380904D01*
X141630498Y-80380904D02*
X141582879Y-80428523D01*
X141582879Y-80428523D02*
X141487641Y-80476142D01*
X141487641Y-80476142D02*
X141106689Y-80476142D01*
X142249546Y-80380904D02*
X142154308Y-80333285D01*
X142154308Y-80333285D02*
X142106689Y-80285666D01*
X142106689Y-80285666D02*
X142059070Y-80190428D01*
X142059070Y-80190428D02*
X142059070Y-80142809D01*
X142059070Y-80142809D02*
X142106689Y-80047571D01*
X142106689Y-80047571D02*
X142154308Y-79999952D01*
X142154308Y-79999952D02*
X142249546Y-79952333D01*
X142249546Y-79952333D02*
X142440022Y-79952333D01*
X142440022Y-79952333D02*
X142535260Y-79999952D01*
X142535260Y-79999952D02*
X142582879Y-80047571D01*
X142582879Y-80047571D02*
X142630498Y-80142809D01*
X142630498Y-80142809D02*
X142630498Y-80190428D01*
X142630498Y-80190428D02*
X142582879Y-80285666D01*
X142582879Y-80285666D02*
X142535260Y-80333285D01*
X142535260Y-80333285D02*
X142440022Y-80380904D01*
X142440022Y-80380904D02*
X142249546Y-80380904D01*
X142249546Y-80380904D02*
X142154308Y-80428523D01*
X142154308Y-80428523D02*
X142106689Y-80476142D01*
X142106689Y-80476142D02*
X142059070Y-80571380D01*
X142059070Y-80571380D02*
X142059070Y-80761856D01*
X142059070Y-80761856D02*
X142106689Y-80857094D01*
X142106689Y-80857094D02*
X142154308Y-80904714D01*
X142154308Y-80904714D02*
X142249546Y-80952333D01*
X142249546Y-80952333D02*
X142440022Y-80952333D01*
X142440022Y-80952333D02*
X142535260Y-80904714D01*
X142535260Y-80904714D02*
X142582879Y-80857094D01*
X142582879Y-80857094D02*
X142630498Y-80761856D01*
X142630498Y-80761856D02*
X142630498Y-80571380D01*
X142630498Y-80571380D02*
X142582879Y-80476142D01*
X142582879Y-80476142D02*
X142535260Y-80428523D01*
X142535260Y-80428523D02*
X142440022Y-80380904D01*
X139426889Y-81007782D02*
X139093556Y-80531591D01*
X138855461Y-81007782D02*
X138855461Y-80007782D01*
X138855461Y-80007782D02*
X139236413Y-80007782D01*
X139236413Y-80007782D02*
X139331651Y-80055401D01*
X139331651Y-80055401D02*
X139379270Y-80103020D01*
X139379270Y-80103020D02*
X139426889Y-80198258D01*
X139426889Y-80198258D02*
X139426889Y-80341115D01*
X139426889Y-80341115D02*
X139379270Y-80436353D01*
X139379270Y-80436353D02*
X139331651Y-80483972D01*
X139331651Y-80483972D02*
X139236413Y-80531591D01*
X139236413Y-80531591D02*
X138855461Y-80531591D01*
X139760223Y-80007782D02*
X140426889Y-80007782D01*
X140426889Y-80007782D02*
X139998318Y-81007782D01*
X129896489Y-80965314D02*
X129563156Y-80489123D01*
X129325061Y-80965314D02*
X129325061Y-79965314D01*
X129325061Y-79965314D02*
X129706013Y-79965314D01*
X129706013Y-79965314D02*
X129801251Y-80012933D01*
X129801251Y-80012933D02*
X129848870Y-80060552D01*
X129848870Y-80060552D02*
X129896489Y-80155790D01*
X129896489Y-80155790D02*
X129896489Y-80298647D01*
X129896489Y-80298647D02*
X129848870Y-80393885D01*
X129848870Y-80393885D02*
X129801251Y-80441504D01*
X129801251Y-80441504D02*
X129706013Y-80489123D01*
X129706013Y-80489123D02*
X129325061Y-80489123D01*
X130753632Y-79965314D02*
X130563156Y-79965314D01*
X130563156Y-79965314D02*
X130467918Y-80012933D01*
X130467918Y-80012933D02*
X130420299Y-80060552D01*
X130420299Y-80060552D02*
X130325061Y-80203409D01*
X130325061Y-80203409D02*
X130277442Y-80393885D01*
X130277442Y-80393885D02*
X130277442Y-80774837D01*
X130277442Y-80774837D02*
X130325061Y-80870075D01*
X130325061Y-80870075D02*
X130372680Y-80917695D01*
X130372680Y-80917695D02*
X130467918Y-80965314D01*
X130467918Y-80965314D02*
X130658394Y-80965314D01*
X130658394Y-80965314D02*
X130753632Y-80917695D01*
X130753632Y-80917695D02*
X130801251Y-80870075D01*
X130801251Y-80870075D02*
X130848870Y-80774837D01*
X130848870Y-80774837D02*
X130848870Y-80536742D01*
X130848870Y-80536742D02*
X130801251Y-80441504D01*
X130801251Y-80441504D02*
X130753632Y-80393885D01*
X130753632Y-80393885D02*
X130658394Y-80346266D01*
X130658394Y-80346266D02*
X130467918Y-80346266D01*
X130467918Y-80346266D02*
X130372680Y-80393885D01*
X130372680Y-80393885D02*
X130325061Y-80441504D01*
X130325061Y-80441504D02*
X130277442Y-80536742D01*
X131908006Y-80985603D02*
X131574673Y-80509412D01*
X131336578Y-80985603D02*
X131336578Y-79985603D01*
X131336578Y-79985603D02*
X131717530Y-79985603D01*
X131717530Y-79985603D02*
X131812768Y-80033222D01*
X131812768Y-80033222D02*
X131860387Y-80080841D01*
X131860387Y-80080841D02*
X131908006Y-80176079D01*
X131908006Y-80176079D02*
X131908006Y-80318936D01*
X131908006Y-80318936D02*
X131860387Y-80414174D01*
X131860387Y-80414174D02*
X131812768Y-80461793D01*
X131812768Y-80461793D02*
X131717530Y-80509412D01*
X131717530Y-80509412D02*
X131336578Y-80509412D01*
X132812768Y-79985603D02*
X132336578Y-79985603D01*
X132336578Y-79985603D02*
X132288959Y-80461793D01*
X132288959Y-80461793D02*
X132336578Y-80414174D01*
X132336578Y-80414174D02*
X132431816Y-80366555D01*
X132431816Y-80366555D02*
X132669911Y-80366555D01*
X132669911Y-80366555D02*
X132765149Y-80414174D01*
X132765149Y-80414174D02*
X132812768Y-80461793D01*
X132812768Y-80461793D02*
X132860387Y-80557031D01*
X132860387Y-80557031D02*
X132860387Y-80795126D01*
X132860387Y-80795126D02*
X132812768Y-80890364D01*
X132812768Y-80890364D02*
X132765149Y-80937984D01*
X132765149Y-80937984D02*
X132669911Y-80985603D01*
X132669911Y-80985603D02*
X132431816Y-80985603D01*
X132431816Y-80985603D02*
X132336578Y-80937984D01*
X132336578Y-80937984D02*
X132288959Y-80890364D01*
X128140715Y-88291314D02*
X127807382Y-87815123D01*
X127569287Y-88291314D02*
X127569287Y-87291314D01*
X127569287Y-87291314D02*
X127950239Y-87291314D01*
X127950239Y-87291314D02*
X128045477Y-87338933D01*
X128045477Y-87338933D02*
X128093096Y-87386552D01*
X128093096Y-87386552D02*
X128140715Y-87481790D01*
X128140715Y-87481790D02*
X128140715Y-87624647D01*
X128140715Y-87624647D02*
X128093096Y-87719885D01*
X128093096Y-87719885D02*
X128045477Y-87767504D01*
X128045477Y-87767504D02*
X127950239Y-87815123D01*
X127950239Y-87815123D02*
X127569287Y-87815123D01*
X128997858Y-87624647D02*
X128997858Y-88291314D01*
X128759763Y-87243695D02*
X128521668Y-87957980D01*
X128521668Y-87957980D02*
X129140715Y-87957980D01*
X130072160Y-88273059D02*
X129738827Y-87796868D01*
X129500732Y-88273059D02*
X129500732Y-87273059D01*
X129500732Y-87273059D02*
X129881684Y-87273059D01*
X129881684Y-87273059D02*
X129976922Y-87320678D01*
X129976922Y-87320678D02*
X130024541Y-87368297D01*
X130024541Y-87368297D02*
X130072160Y-87463535D01*
X130072160Y-87463535D02*
X130072160Y-87606392D01*
X130072160Y-87606392D02*
X130024541Y-87701630D01*
X130024541Y-87701630D02*
X129976922Y-87749249D01*
X129976922Y-87749249D02*
X129881684Y-87796868D01*
X129881684Y-87796868D02*
X129500732Y-87796868D01*
X130405494Y-87273059D02*
X131024541Y-87273059D01*
X131024541Y-87273059D02*
X130691208Y-87654011D01*
X130691208Y-87654011D02*
X130834065Y-87654011D01*
X130834065Y-87654011D02*
X130929303Y-87701630D01*
X130929303Y-87701630D02*
X130976922Y-87749249D01*
X130976922Y-87749249D02*
X131024541Y-87844487D01*
X131024541Y-87844487D02*
X131024541Y-88082582D01*
X131024541Y-88082582D02*
X130976922Y-88177820D01*
X130976922Y-88177820D02*
X130929303Y-88225440D01*
X130929303Y-88225440D02*
X130834065Y-88273059D01*
X130834065Y-88273059D02*
X130548351Y-88273059D01*
X130548351Y-88273059D02*
X130453113Y-88225440D01*
X130453113Y-88225440D02*
X130405494Y-88177820D01*
X144669911Y-88119560D02*
X144336578Y-87643369D01*
X144098483Y-88119560D02*
X144098483Y-87119560D01*
X144098483Y-87119560D02*
X144479435Y-87119560D01*
X144479435Y-87119560D02*
X144574673Y-87167179D01*
X144574673Y-87167179D02*
X144622292Y-87214798D01*
X144622292Y-87214798D02*
X144669911Y-87310036D01*
X144669911Y-87310036D02*
X144669911Y-87452893D01*
X144669911Y-87452893D02*
X144622292Y-87548131D01*
X144622292Y-87548131D02*
X144574673Y-87595750D01*
X144574673Y-87595750D02*
X144479435Y-87643369D01*
X144479435Y-87643369D02*
X144098483Y-87643369D01*
X145050864Y-87214798D02*
X145098483Y-87167179D01*
X145098483Y-87167179D02*
X145193721Y-87119560D01*
X145193721Y-87119560D02*
X145431816Y-87119560D01*
X145431816Y-87119560D02*
X145527054Y-87167179D01*
X145527054Y-87167179D02*
X145574673Y-87214798D01*
X145574673Y-87214798D02*
X145622292Y-87310036D01*
X145622292Y-87310036D02*
X145622292Y-87405274D01*
X145622292Y-87405274D02*
X145574673Y-87548131D01*
X145574673Y-87548131D02*
X145003245Y-88119560D01*
X145003245Y-88119560D02*
X145622292Y-88119560D01*
X142689774Y-88150259D02*
X142356441Y-87674068D01*
X142118346Y-88150259D02*
X142118346Y-87150259D01*
X142118346Y-87150259D02*
X142499298Y-87150259D01*
X142499298Y-87150259D02*
X142594536Y-87197878D01*
X142594536Y-87197878D02*
X142642155Y-87245497D01*
X142642155Y-87245497D02*
X142689774Y-87340735D01*
X142689774Y-87340735D02*
X142689774Y-87483592D01*
X142689774Y-87483592D02*
X142642155Y-87578830D01*
X142642155Y-87578830D02*
X142594536Y-87626449D01*
X142594536Y-87626449D02*
X142499298Y-87674068D01*
X142499298Y-87674068D02*
X142118346Y-87674068D01*
X143642155Y-88150259D02*
X143070727Y-88150259D01*
X143356441Y-88150259D02*
X143356441Y-87150259D01*
X143356441Y-87150259D02*
X143261203Y-87293116D01*
X143261203Y-87293116D02*
X143165965Y-87388354D01*
X143165965Y-87388354D02*
X143070727Y-87435973D01*
X145097788Y-74740161D02*
X145097788Y-73740161D01*
X145573978Y-74740161D02*
X145573978Y-73740161D01*
X145573978Y-73740161D02*
X146145406Y-74740161D01*
X146145406Y-74740161D02*
X146145406Y-73740161D01*
X146478740Y-73740161D02*
X147050168Y-73740161D01*
X146764454Y-74740161D02*
X146764454Y-73740161D01*
X150234428Y-77042317D02*
X150234428Y-76042317D01*
X150234428Y-76042317D02*
X150615380Y-76042317D01*
X150615380Y-76042317D02*
X150710618Y-76089936D01*
X150710618Y-76089936D02*
X150758237Y-76137555D01*
X150758237Y-76137555D02*
X150805856Y-76232793D01*
X150805856Y-76232793D02*
X150805856Y-76375650D01*
X150805856Y-76375650D02*
X150758237Y-76470888D01*
X150758237Y-76470888D02*
X150710618Y-76518507D01*
X150710618Y-76518507D02*
X150615380Y-76566126D01*
X150615380Y-76566126D02*
X150234428Y-76566126D01*
X151139190Y-76042317D02*
X151377285Y-77042317D01*
X151377285Y-77042317D02*
X151567761Y-76328031D01*
X151567761Y-76328031D02*
X151758237Y-77042317D01*
X151758237Y-77042317D02*
X151996333Y-76042317D01*
X152948713Y-77042317D02*
X152615380Y-76566126D01*
X152377285Y-77042317D02*
X152377285Y-76042317D01*
X152377285Y-76042317D02*
X152758237Y-76042317D01*
X152758237Y-76042317D02*
X152853475Y-76089936D01*
X152853475Y-76089936D02*
X152901094Y-76137555D01*
X152901094Y-76137555D02*
X152948713Y-76232793D01*
X152948713Y-76232793D02*
X152948713Y-76375650D01*
X152948713Y-76375650D02*
X152901094Y-76470888D01*
X152901094Y-76470888D02*
X152853475Y-76518507D01*
X152853475Y-76518507D02*
X152758237Y-76566126D01*
X152758237Y-76566126D02*
X152377285Y-76566126D01*
X149014348Y-82907809D02*
X148681015Y-82431618D01*
X148442920Y-82907809D02*
X148442920Y-81907809D01*
X148442920Y-81907809D02*
X148823872Y-81907809D01*
X148823872Y-81907809D02*
X148919110Y-81955428D01*
X148919110Y-81955428D02*
X148966729Y-82003047D01*
X148966729Y-82003047D02*
X149014348Y-82098285D01*
X149014348Y-82098285D02*
X149014348Y-82241142D01*
X149014348Y-82241142D02*
X148966729Y-82336380D01*
X148966729Y-82336380D02*
X148919110Y-82383999D01*
X148919110Y-82383999D02*
X148823872Y-82431618D01*
X148823872Y-82431618D02*
X148442920Y-82431618D01*
X149442920Y-82383999D02*
X149776253Y-82383999D01*
X149919110Y-82907809D02*
X149442920Y-82907809D01*
X149442920Y-82907809D02*
X149442920Y-81907809D01*
X149442920Y-81907809D02*
X149919110Y-81907809D01*
X150300063Y-82860190D02*
X150442920Y-82907809D01*
X150442920Y-82907809D02*
X150681015Y-82907809D01*
X150681015Y-82907809D02*
X150776253Y-82860190D01*
X150776253Y-82860190D02*
X150823872Y-82812570D01*
X150823872Y-82812570D02*
X150871491Y-82717332D01*
X150871491Y-82717332D02*
X150871491Y-82622094D01*
X150871491Y-82622094D02*
X150823872Y-82526856D01*
X150823872Y-82526856D02*
X150776253Y-82479237D01*
X150776253Y-82479237D02*
X150681015Y-82431618D01*
X150681015Y-82431618D02*
X150490539Y-82383999D01*
X150490539Y-82383999D02*
X150395301Y-82336380D01*
X150395301Y-82336380D02*
X150347682Y-82288761D01*
X150347682Y-82288761D02*
X150300063Y-82193523D01*
X150300063Y-82193523D02*
X150300063Y-82098285D01*
X150300063Y-82098285D02*
X150347682Y-82003047D01*
X150347682Y-82003047D02*
X150395301Y-81955428D01*
X150395301Y-81955428D02*
X150490539Y-81907809D01*
X150490539Y-81907809D02*
X150728634Y-81907809D01*
X150728634Y-81907809D02*
X150871491Y-81955428D01*
X151300063Y-82383999D02*
X151633396Y-82383999D01*
X151776253Y-82907809D02*
X151300063Y-82907809D01*
X151300063Y-82907809D02*
X151300063Y-81907809D01*
X151300063Y-81907809D02*
X151776253Y-81907809D01*
X152061968Y-81907809D02*
X152633396Y-81907809D01*
X152347682Y-82907809D02*
X152347682Y-81907809D01*
X145086416Y-82827734D02*
X145086416Y-81827734D01*
X145514987Y-81922972D02*
X145562606Y-81875353D01*
X145562606Y-81875353D02*
X145657844Y-81827734D01*
X145657844Y-81827734D02*
X145895939Y-81827734D01*
X145895939Y-81827734D02*
X145991177Y-81875353D01*
X145991177Y-81875353D02*
X146038796Y-81922972D01*
X146038796Y-81922972D02*
X146086415Y-82018210D01*
X146086415Y-82018210D02*
X146086415Y-82113448D01*
X146086415Y-82113448D02*
X146038796Y-82256305D01*
X146038796Y-82256305D02*
X145467368Y-82827734D01*
X145467368Y-82827734D02*
X146086415Y-82827734D01*
X147086415Y-82732495D02*
X147038796Y-82780115D01*
X147038796Y-82780115D02*
X146895939Y-82827734D01*
X146895939Y-82827734D02*
X146800701Y-82827734D01*
X146800701Y-82827734D02*
X146657844Y-82780115D01*
X146657844Y-82780115D02*
X146562606Y-82684876D01*
X146562606Y-82684876D02*
X146514987Y-82589638D01*
X146514987Y-82589638D02*
X146467368Y-82399162D01*
X146467368Y-82399162D02*
X146467368Y-82256305D01*
X146467368Y-82256305D02*
X146514987Y-82065829D01*
X146514987Y-82065829D02*
X146562606Y-81970591D01*
X146562606Y-81970591D02*
X146657844Y-81875353D01*
X146657844Y-81875353D02*
X146800701Y-81827734D01*
X146800701Y-81827734D02*
X146895939Y-81827734D01*
X146895939Y-81827734D02*
X147038796Y-81875353D01*
X147038796Y-81875353D02*
X147086415Y-81922972D01*
X147343905Y-63936819D02*
X147343905Y-62936819D01*
X147343905Y-62936819D02*
X147582000Y-62936819D01*
X147582000Y-62936819D02*
X147724857Y-62984438D01*
X147724857Y-62984438D02*
X147820095Y-63079676D01*
X147820095Y-63079676D02*
X147867714Y-63174914D01*
X147867714Y-63174914D02*
X147915333Y-63365390D01*
X147915333Y-63365390D02*
X147915333Y-63508247D01*
X147915333Y-63508247D02*
X147867714Y-63698723D01*
X147867714Y-63698723D02*
X147820095Y-63793961D01*
X147820095Y-63793961D02*
X147724857Y-63889200D01*
X147724857Y-63889200D02*
X147582000Y-63936819D01*
X147582000Y-63936819D02*
X147343905Y-63936819D01*
X148867714Y-63936819D02*
X148296286Y-63936819D01*
X148582000Y-63936819D02*
X148582000Y-62936819D01*
X148582000Y-62936819D02*
X148486762Y-63079676D01*
X148486762Y-63079676D02*
X148391524Y-63174914D01*
X148391524Y-63174914D02*
X148296286Y-63222533D01*
X129647116Y-62862812D02*
X129647116Y-62930156D01*
X129647116Y-62930156D02*
X129579772Y-63064843D01*
X129579772Y-63064843D02*
X129512429Y-63132186D01*
X129512429Y-63132186D02*
X129377742Y-63199530D01*
X129377742Y-63199530D02*
X129243055Y-63199530D01*
X129243055Y-63199530D02*
X129142040Y-63165858D01*
X129142040Y-63165858D02*
X128973681Y-63064843D01*
X128973681Y-63064843D02*
X128872666Y-62963828D01*
X128872666Y-62963828D02*
X128771650Y-62795469D01*
X128771650Y-62795469D02*
X128737979Y-62694454D01*
X128737979Y-62694454D02*
X128737979Y-62559767D01*
X128737979Y-62559767D02*
X128805322Y-62425080D01*
X128805322Y-62425080D02*
X128872666Y-62357736D01*
X128872666Y-62357736D02*
X129007353Y-62290393D01*
X129007353Y-62290393D02*
X129074696Y-62290393D01*
X130387894Y-62256721D02*
X129983833Y-62660782D01*
X130185864Y-62458751D02*
X129478757Y-61751645D01*
X129478757Y-61751645D02*
X129512429Y-61920003D01*
X129512429Y-61920003D02*
X129512429Y-62054690D01*
X129512429Y-62054690D02*
X129478757Y-62155706D01*
X130320551Y-60909851D02*
X129983833Y-61246568D01*
X129983833Y-61246568D02*
X130286879Y-61616957D01*
X130286879Y-61616957D02*
X130286879Y-61549614D01*
X130286879Y-61549614D02*
X130320551Y-61448599D01*
X130320551Y-61448599D02*
X130488910Y-61280240D01*
X130488910Y-61280240D02*
X130589925Y-61246568D01*
X130589925Y-61246568D02*
X130657269Y-61246568D01*
X130657269Y-61246568D02*
X130758284Y-61280240D01*
X130758284Y-61280240D02*
X130926643Y-61448599D01*
X130926643Y-61448599D02*
X130960314Y-61549614D01*
X130960314Y-61549614D02*
X130960314Y-61616957D01*
X130960314Y-61616957D02*
X130926643Y-61717973D01*
X130926643Y-61717973D02*
X130758284Y-61886331D01*
X130758284Y-61886331D02*
X130657269Y-61920003D01*
X130657269Y-61920003D02*
X130589925Y-61920003D01*
X143111258Y-74904890D02*
X143158878Y-74952509D01*
X143158878Y-74952509D02*
X143206497Y-75095366D01*
X143206497Y-75095366D02*
X143206497Y-75190604D01*
X143206497Y-75190604D02*
X143158878Y-75333461D01*
X143158878Y-75333461D02*
X143063639Y-75428699D01*
X143063639Y-75428699D02*
X142968401Y-75476318D01*
X142968401Y-75476318D02*
X142777925Y-75523937D01*
X142777925Y-75523937D02*
X142635068Y-75523937D01*
X142635068Y-75523937D02*
X142444592Y-75476318D01*
X142444592Y-75476318D02*
X142349354Y-75428699D01*
X142349354Y-75428699D02*
X142254116Y-75333461D01*
X142254116Y-75333461D02*
X142206497Y-75190604D01*
X142206497Y-75190604D02*
X142206497Y-75095366D01*
X142206497Y-75095366D02*
X142254116Y-74952509D01*
X142254116Y-74952509D02*
X142301735Y-74904890D01*
X143206497Y-73952509D02*
X143206497Y-74523937D01*
X143206497Y-74238223D02*
X142206497Y-74238223D01*
X142206497Y-74238223D02*
X142349354Y-74333461D01*
X142349354Y-74333461D02*
X142444592Y-74428699D01*
X142444592Y-74428699D02*
X142492211Y-74523937D01*
X142539830Y-73095366D02*
X143206497Y-73095366D01*
X142158878Y-73333461D02*
X142873163Y-73571556D01*
X142873163Y-73571556D02*
X142873163Y-72952509D01*
X127482953Y-66136955D02*
X127435334Y-66184575D01*
X127435334Y-66184575D02*
X127292477Y-66232194D01*
X127292477Y-66232194D02*
X127197239Y-66232194D01*
X127197239Y-66232194D02*
X127054382Y-66184575D01*
X127054382Y-66184575D02*
X126959144Y-66089336D01*
X126959144Y-66089336D02*
X126911525Y-65994098D01*
X126911525Y-65994098D02*
X126863906Y-65803622D01*
X126863906Y-65803622D02*
X126863906Y-65660765D01*
X126863906Y-65660765D02*
X126911525Y-65470289D01*
X126911525Y-65470289D02*
X126959144Y-65375051D01*
X126959144Y-65375051D02*
X127054382Y-65279813D01*
X127054382Y-65279813D02*
X127197239Y-65232194D01*
X127197239Y-65232194D02*
X127292477Y-65232194D01*
X127292477Y-65232194D02*
X127435334Y-65279813D01*
X127435334Y-65279813D02*
X127482953Y-65327432D01*
X128435334Y-66232194D02*
X127863906Y-66232194D01*
X128149620Y-66232194D02*
X128149620Y-65232194D01*
X128149620Y-65232194D02*
X128054382Y-65375051D01*
X128054382Y-65375051D02*
X127959144Y-65470289D01*
X127959144Y-65470289D02*
X127863906Y-65517908D01*
X128768668Y-65232194D02*
X129387715Y-65232194D01*
X129387715Y-65232194D02*
X129054382Y-65613146D01*
X129054382Y-65613146D02*
X129197239Y-65613146D01*
X129197239Y-65613146D02*
X129292477Y-65660765D01*
X129292477Y-65660765D02*
X129340096Y-65708384D01*
X129340096Y-65708384D02*
X129387715Y-65803622D01*
X129387715Y-65803622D02*
X129387715Y-66041717D01*
X129387715Y-66041717D02*
X129340096Y-66136955D01*
X129340096Y-66136955D02*
X129292477Y-66184575D01*
X129292477Y-66184575D02*
X129197239Y-66232194D01*
X129197239Y-66232194D02*
X128911525Y-66232194D01*
X128911525Y-66232194D02*
X128816287Y-66184575D01*
X128816287Y-66184575D02*
X128768668Y-66136955D01*
X127522990Y-67518249D02*
X127475371Y-67565869D01*
X127475371Y-67565869D02*
X127332514Y-67613488D01*
X127332514Y-67613488D02*
X127237276Y-67613488D01*
X127237276Y-67613488D02*
X127094419Y-67565869D01*
X127094419Y-67565869D02*
X126999181Y-67470630D01*
X126999181Y-67470630D02*
X126951562Y-67375392D01*
X126951562Y-67375392D02*
X126903943Y-67184916D01*
X126903943Y-67184916D02*
X126903943Y-67042059D01*
X126903943Y-67042059D02*
X126951562Y-66851583D01*
X126951562Y-66851583D02*
X126999181Y-66756345D01*
X126999181Y-66756345D02*
X127094419Y-66661107D01*
X127094419Y-66661107D02*
X127237276Y-66613488D01*
X127237276Y-66613488D02*
X127332514Y-66613488D01*
X127332514Y-66613488D02*
X127475371Y-66661107D01*
X127475371Y-66661107D02*
X127522990Y-66708726D01*
X128475371Y-67613488D02*
X127903943Y-67613488D01*
X128189657Y-67613488D02*
X128189657Y-66613488D01*
X128189657Y-66613488D02*
X128094419Y-66756345D01*
X128094419Y-66756345D02*
X127999181Y-66851583D01*
X127999181Y-66851583D02*
X127903943Y-66899202D01*
X128856324Y-66708726D02*
X128903943Y-66661107D01*
X128903943Y-66661107D02*
X128999181Y-66613488D01*
X128999181Y-66613488D02*
X129237276Y-66613488D01*
X129237276Y-66613488D02*
X129332514Y-66661107D01*
X129332514Y-66661107D02*
X129380133Y-66708726D01*
X129380133Y-66708726D02*
X129427752Y-66803964D01*
X129427752Y-66803964D02*
X129427752Y-66899202D01*
X129427752Y-66899202D02*
X129380133Y-67042059D01*
X129380133Y-67042059D02*
X128808705Y-67613488D01*
X128808705Y-67613488D02*
X129427752Y-67613488D01*
X143139112Y-68141844D02*
X143186732Y-68189463D01*
X143186732Y-68189463D02*
X143234351Y-68332320D01*
X143234351Y-68332320D02*
X143234351Y-68427558D01*
X143234351Y-68427558D02*
X143186732Y-68570415D01*
X143186732Y-68570415D02*
X143091493Y-68665653D01*
X143091493Y-68665653D02*
X142996255Y-68713272D01*
X142996255Y-68713272D02*
X142805779Y-68760891D01*
X142805779Y-68760891D02*
X142662922Y-68760891D01*
X142662922Y-68760891D02*
X142472446Y-68713272D01*
X142472446Y-68713272D02*
X142377208Y-68665653D01*
X142377208Y-68665653D02*
X142281970Y-68570415D01*
X142281970Y-68570415D02*
X142234351Y-68427558D01*
X142234351Y-68427558D02*
X142234351Y-68332320D01*
X142234351Y-68332320D02*
X142281970Y-68189463D01*
X142281970Y-68189463D02*
X142329589Y-68141844D01*
X143234351Y-67189463D02*
X143234351Y-67760891D01*
X143234351Y-67475177D02*
X142234351Y-67475177D01*
X142234351Y-67475177D02*
X142377208Y-67570415D01*
X142377208Y-67570415D02*
X142472446Y-67665653D01*
X142472446Y-67665653D02*
X142520065Y-67760891D01*
X143234351Y-66237082D02*
X143234351Y-66808510D01*
X143234351Y-66522796D02*
X142234351Y-66522796D01*
X142234351Y-66522796D02*
X142377208Y-66618034D01*
X142377208Y-66618034D02*
X142472446Y-66713272D01*
X142472446Y-66713272D02*
X142520065Y-66808510D01*
X131007752Y-75008274D02*
X131055372Y-75055893D01*
X131055372Y-75055893D02*
X131102991Y-75198750D01*
X131102991Y-75198750D02*
X131102991Y-75293988D01*
X131102991Y-75293988D02*
X131055372Y-75436845D01*
X131055372Y-75436845D02*
X130960133Y-75532083D01*
X130960133Y-75532083D02*
X130864895Y-75579702D01*
X130864895Y-75579702D02*
X130674419Y-75627321D01*
X130674419Y-75627321D02*
X130531562Y-75627321D01*
X130531562Y-75627321D02*
X130341086Y-75579702D01*
X130341086Y-75579702D02*
X130245848Y-75532083D01*
X130245848Y-75532083D02*
X130150610Y-75436845D01*
X130150610Y-75436845D02*
X130102991Y-75293988D01*
X130102991Y-75293988D02*
X130102991Y-75198750D01*
X130102991Y-75198750D02*
X130150610Y-75055893D01*
X130150610Y-75055893D02*
X130198229Y-75008274D01*
X131102991Y-74055893D02*
X131102991Y-74627321D01*
X131102991Y-74341607D02*
X130102991Y-74341607D01*
X130102991Y-74341607D02*
X130245848Y-74436845D01*
X130245848Y-74436845D02*
X130341086Y-74532083D01*
X130341086Y-74532083D02*
X130388705Y-74627321D01*
X130102991Y-73436845D02*
X130102991Y-73341607D01*
X130102991Y-73341607D02*
X130150610Y-73246369D01*
X130150610Y-73246369D02*
X130198229Y-73198750D01*
X130198229Y-73198750D02*
X130293467Y-73151131D01*
X130293467Y-73151131D02*
X130483943Y-73103512D01*
X130483943Y-73103512D02*
X130722038Y-73103512D01*
X130722038Y-73103512D02*
X130912514Y-73151131D01*
X130912514Y-73151131D02*
X131007752Y-73198750D01*
X131007752Y-73198750D02*
X131055372Y-73246369D01*
X131055372Y-73246369D02*
X131102991Y-73341607D01*
X131102991Y-73341607D02*
X131102991Y-73436845D01*
X131102991Y-73436845D02*
X131055372Y-73532083D01*
X131055372Y-73532083D02*
X131007752Y-73579702D01*
X131007752Y-73579702D02*
X130912514Y-73627321D01*
X130912514Y-73627321D02*
X130722038Y-73674940D01*
X130722038Y-73674940D02*
X130483943Y-73674940D01*
X130483943Y-73674940D02*
X130293467Y-73627321D01*
X130293467Y-73627321D02*
X130198229Y-73579702D01*
X130198229Y-73579702D02*
X130150610Y-73532083D01*
X130150610Y-73532083D02*
X130102991Y-73436845D01*
X132248915Y-74191764D02*
X132296535Y-74239383D01*
X132296535Y-74239383D02*
X132344154Y-74382240D01*
X132344154Y-74382240D02*
X132344154Y-74477478D01*
X132344154Y-74477478D02*
X132296535Y-74620335D01*
X132296535Y-74620335D02*
X132201296Y-74715573D01*
X132201296Y-74715573D02*
X132106058Y-74763192D01*
X132106058Y-74763192D02*
X131915582Y-74810811D01*
X131915582Y-74810811D02*
X131772725Y-74810811D01*
X131772725Y-74810811D02*
X131582249Y-74763192D01*
X131582249Y-74763192D02*
X131487011Y-74715573D01*
X131487011Y-74715573D02*
X131391773Y-74620335D01*
X131391773Y-74620335D02*
X131344154Y-74477478D01*
X131344154Y-74477478D02*
X131344154Y-74382240D01*
X131344154Y-74382240D02*
X131391773Y-74239383D01*
X131391773Y-74239383D02*
X131439392Y-74191764D01*
X132344154Y-73715573D02*
X132344154Y-73525097D01*
X132344154Y-73525097D02*
X132296535Y-73429859D01*
X132296535Y-73429859D02*
X132248915Y-73382240D01*
X132248915Y-73382240D02*
X132106058Y-73287002D01*
X132106058Y-73287002D02*
X131915582Y-73239383D01*
X131915582Y-73239383D02*
X131534630Y-73239383D01*
X131534630Y-73239383D02*
X131439392Y-73287002D01*
X131439392Y-73287002D02*
X131391773Y-73334621D01*
X131391773Y-73334621D02*
X131344154Y-73429859D01*
X131344154Y-73429859D02*
X131344154Y-73620335D01*
X131344154Y-73620335D02*
X131391773Y-73715573D01*
X131391773Y-73715573D02*
X131439392Y-73763192D01*
X131439392Y-73763192D02*
X131534630Y-73810811D01*
X131534630Y-73810811D02*
X131772725Y-73810811D01*
X131772725Y-73810811D02*
X131867963Y-73763192D01*
X131867963Y-73763192D02*
X131915582Y-73715573D01*
X131915582Y-73715573D02*
X131963201Y-73620335D01*
X131963201Y-73620335D02*
X131963201Y-73429859D01*
X131963201Y-73429859D02*
X131915582Y-73334621D01*
X131915582Y-73334621D02*
X131867963Y-73287002D01*
X131867963Y-73287002D02*
X131772725Y-73239383D01*
X141797856Y-68146103D02*
X141845476Y-68193722D01*
X141845476Y-68193722D02*
X141893095Y-68336579D01*
X141893095Y-68336579D02*
X141893095Y-68431817D01*
X141893095Y-68431817D02*
X141845476Y-68574674D01*
X141845476Y-68574674D02*
X141750237Y-68669912D01*
X141750237Y-68669912D02*
X141654999Y-68717531D01*
X141654999Y-68717531D02*
X141464523Y-68765150D01*
X141464523Y-68765150D02*
X141321666Y-68765150D01*
X141321666Y-68765150D02*
X141131190Y-68717531D01*
X141131190Y-68717531D02*
X141035952Y-68669912D01*
X141035952Y-68669912D02*
X140940714Y-68574674D01*
X140940714Y-68574674D02*
X140893095Y-68431817D01*
X140893095Y-68431817D02*
X140893095Y-68336579D01*
X140893095Y-68336579D02*
X140940714Y-68193722D01*
X140940714Y-68193722D02*
X140988333Y-68146103D01*
X141321666Y-67574674D02*
X141274047Y-67669912D01*
X141274047Y-67669912D02*
X141226428Y-67717531D01*
X141226428Y-67717531D02*
X141131190Y-67765150D01*
X141131190Y-67765150D02*
X141083571Y-67765150D01*
X141083571Y-67765150D02*
X140988333Y-67717531D01*
X140988333Y-67717531D02*
X140940714Y-67669912D01*
X140940714Y-67669912D02*
X140893095Y-67574674D01*
X140893095Y-67574674D02*
X140893095Y-67384198D01*
X140893095Y-67384198D02*
X140940714Y-67288960D01*
X140940714Y-67288960D02*
X140988333Y-67241341D01*
X140988333Y-67241341D02*
X141083571Y-67193722D01*
X141083571Y-67193722D02*
X141131190Y-67193722D01*
X141131190Y-67193722D02*
X141226428Y-67241341D01*
X141226428Y-67241341D02*
X141274047Y-67288960D01*
X141274047Y-67288960D02*
X141321666Y-67384198D01*
X141321666Y-67384198D02*
X141321666Y-67574674D01*
X141321666Y-67574674D02*
X141369285Y-67669912D01*
X141369285Y-67669912D02*
X141416904Y-67717531D01*
X141416904Y-67717531D02*
X141512142Y-67765150D01*
X141512142Y-67765150D02*
X141702618Y-67765150D01*
X141702618Y-67765150D02*
X141797856Y-67717531D01*
X141797856Y-67717531D02*
X141845476Y-67669912D01*
X141845476Y-67669912D02*
X141893095Y-67574674D01*
X141893095Y-67574674D02*
X141893095Y-67384198D01*
X141893095Y-67384198D02*
X141845476Y-67288960D01*
X141845476Y-67288960D02*
X141797856Y-67241341D01*
X141797856Y-67241341D02*
X141702618Y-67193722D01*
X141702618Y-67193722D02*
X141512142Y-67193722D01*
X141512142Y-67193722D02*
X141416904Y-67241341D01*
X141416904Y-67241341D02*
X141369285Y-67288960D01*
X141369285Y-67288960D02*
X141321666Y-67384198D01*
X139704188Y-74506843D02*
X139751808Y-74554462D01*
X139751808Y-74554462D02*
X139799427Y-74697319D01*
X139799427Y-74697319D02*
X139799427Y-74792557D01*
X139799427Y-74792557D02*
X139751808Y-74935414D01*
X139751808Y-74935414D02*
X139656569Y-75030652D01*
X139656569Y-75030652D02*
X139561331Y-75078271D01*
X139561331Y-75078271D02*
X139370855Y-75125890D01*
X139370855Y-75125890D02*
X139227998Y-75125890D01*
X139227998Y-75125890D02*
X139037522Y-75078271D01*
X139037522Y-75078271D02*
X138942284Y-75030652D01*
X138942284Y-75030652D02*
X138847046Y-74935414D01*
X138847046Y-74935414D02*
X138799427Y-74792557D01*
X138799427Y-74792557D02*
X138799427Y-74697319D01*
X138799427Y-74697319D02*
X138847046Y-74554462D01*
X138847046Y-74554462D02*
X138894665Y-74506843D01*
X138799427Y-74173509D02*
X138799427Y-73506843D01*
X138799427Y-73506843D02*
X139799427Y-73935414D01*
X127586167Y-60113868D02*
X127586167Y-60181212D01*
X127586167Y-60181212D02*
X127518823Y-60315899D01*
X127518823Y-60315899D02*
X127451480Y-60383242D01*
X127451480Y-60383242D02*
X127316793Y-60450586D01*
X127316793Y-60450586D02*
X127182106Y-60450586D01*
X127182106Y-60450586D02*
X127081091Y-60416914D01*
X127081091Y-60416914D02*
X126912732Y-60315899D01*
X126912732Y-60315899D02*
X126811717Y-60214884D01*
X126811717Y-60214884D02*
X126710701Y-60046525D01*
X126710701Y-60046525D02*
X126677030Y-59945510D01*
X126677030Y-59945510D02*
X126677030Y-59810823D01*
X126677030Y-59810823D02*
X126744373Y-59676136D01*
X126744373Y-59676136D02*
X126811717Y-59608792D01*
X126811717Y-59608792D02*
X126946404Y-59541449D01*
X126946404Y-59541449D02*
X127013747Y-59541449D01*
X127552495Y-58868014D02*
X127417808Y-59002701D01*
X127417808Y-59002701D02*
X127384136Y-59103716D01*
X127384136Y-59103716D02*
X127384136Y-59171059D01*
X127384136Y-59171059D02*
X127417808Y-59339418D01*
X127417808Y-59339418D02*
X127518823Y-59507777D01*
X127518823Y-59507777D02*
X127788197Y-59777151D01*
X127788197Y-59777151D02*
X127889213Y-59810823D01*
X127889213Y-59810823D02*
X127956556Y-59810823D01*
X127956556Y-59810823D02*
X128057571Y-59777151D01*
X128057571Y-59777151D02*
X128192258Y-59642464D01*
X128192258Y-59642464D02*
X128225930Y-59541449D01*
X128225930Y-59541449D02*
X128225930Y-59474105D01*
X128225930Y-59474105D02*
X128192258Y-59373090D01*
X128192258Y-59373090D02*
X128023900Y-59204731D01*
X128023900Y-59204731D02*
X127922884Y-59171059D01*
X127922884Y-59171059D02*
X127855541Y-59171059D01*
X127855541Y-59171059D02*
X127754526Y-59204731D01*
X127754526Y-59204731D02*
X127619839Y-59339418D01*
X127619839Y-59339418D02*
X127586167Y-59440433D01*
X127586167Y-59440433D02*
X127586167Y-59507777D01*
X127586167Y-59507777D02*
X127619839Y-59608792D01*
X129646478Y-69467340D02*
X129694098Y-69514959D01*
X129694098Y-69514959D02*
X129741717Y-69657816D01*
X129741717Y-69657816D02*
X129741717Y-69753054D01*
X129741717Y-69753054D02*
X129694098Y-69895911D01*
X129694098Y-69895911D02*
X129598859Y-69991149D01*
X129598859Y-69991149D02*
X129503621Y-70038768D01*
X129503621Y-70038768D02*
X129313145Y-70086387D01*
X129313145Y-70086387D02*
X129170288Y-70086387D01*
X129170288Y-70086387D02*
X128979812Y-70038768D01*
X128979812Y-70038768D02*
X128884574Y-69991149D01*
X128884574Y-69991149D02*
X128789336Y-69895911D01*
X128789336Y-69895911D02*
X128741717Y-69753054D01*
X128741717Y-69753054D02*
X128741717Y-69657816D01*
X128741717Y-69657816D02*
X128789336Y-69514959D01*
X128789336Y-69514959D02*
X128836955Y-69467340D01*
X128741717Y-68562578D02*
X128741717Y-69038768D01*
X128741717Y-69038768D02*
X129217907Y-69086387D01*
X129217907Y-69086387D02*
X129170288Y-69038768D01*
X129170288Y-69038768D02*
X129122669Y-68943530D01*
X129122669Y-68943530D02*
X129122669Y-68705435D01*
X129122669Y-68705435D02*
X129170288Y-68610197D01*
X129170288Y-68610197D02*
X129217907Y-68562578D01*
X129217907Y-68562578D02*
X129313145Y-68514959D01*
X129313145Y-68514959D02*
X129551240Y-68514959D01*
X129551240Y-68514959D02*
X129646478Y-68562578D01*
X129646478Y-68562578D02*
X129694098Y-68610197D01*
X129694098Y-68610197D02*
X129741717Y-68705435D01*
X129741717Y-68705435D02*
X129741717Y-68943530D01*
X129741717Y-68943530D02*
X129694098Y-69038768D01*
X129694098Y-69038768D02*
X129646478Y-69086387D01*
X132850491Y-84662694D02*
X132802872Y-84710314D01*
X132802872Y-84710314D02*
X132660015Y-84757933D01*
X132660015Y-84757933D02*
X132564777Y-84757933D01*
X132564777Y-84757933D02*
X132421920Y-84710314D01*
X132421920Y-84710314D02*
X132326682Y-84615075D01*
X132326682Y-84615075D02*
X132279063Y-84519837D01*
X132279063Y-84519837D02*
X132231444Y-84329361D01*
X132231444Y-84329361D02*
X132231444Y-84186504D01*
X132231444Y-84186504D02*
X132279063Y-83996028D01*
X132279063Y-83996028D02*
X132326682Y-83900790D01*
X132326682Y-83900790D02*
X132421920Y-83805552D01*
X132421920Y-83805552D02*
X132564777Y-83757933D01*
X132564777Y-83757933D02*
X132660015Y-83757933D01*
X132660015Y-83757933D02*
X132802872Y-83805552D01*
X132802872Y-83805552D02*
X132850491Y-83853171D01*
X133707634Y-84091266D02*
X133707634Y-84757933D01*
X133469539Y-83710314D02*
X133231444Y-84424599D01*
X133231444Y-84424599D02*
X133850491Y-84424599D01*
X139953333Y-84577580D02*
X139905714Y-84625200D01*
X139905714Y-84625200D02*
X139762857Y-84672819D01*
X139762857Y-84672819D02*
X139667619Y-84672819D01*
X139667619Y-84672819D02*
X139524762Y-84625200D01*
X139524762Y-84625200D02*
X139429524Y-84529961D01*
X139429524Y-84529961D02*
X139381905Y-84434723D01*
X139381905Y-84434723D02*
X139334286Y-84244247D01*
X139334286Y-84244247D02*
X139334286Y-84101390D01*
X139334286Y-84101390D02*
X139381905Y-83910914D01*
X139381905Y-83910914D02*
X139429524Y-83815676D01*
X139429524Y-83815676D02*
X139524762Y-83720438D01*
X139524762Y-83720438D02*
X139667619Y-83672819D01*
X139667619Y-83672819D02*
X139762857Y-83672819D01*
X139762857Y-83672819D02*
X139905714Y-83720438D01*
X139905714Y-83720438D02*
X139953333Y-83768057D01*
X140286667Y-83672819D02*
X140905714Y-83672819D01*
X140905714Y-83672819D02*
X140572381Y-84053771D01*
X140572381Y-84053771D02*
X140715238Y-84053771D01*
X140715238Y-84053771D02*
X140810476Y-84101390D01*
X140810476Y-84101390D02*
X140858095Y-84149009D01*
X140858095Y-84149009D02*
X140905714Y-84244247D01*
X140905714Y-84244247D02*
X140905714Y-84482342D01*
X140905714Y-84482342D02*
X140858095Y-84577580D01*
X140858095Y-84577580D02*
X140810476Y-84625200D01*
X140810476Y-84625200D02*
X140715238Y-84672819D01*
X140715238Y-84672819D02*
X140429524Y-84672819D01*
X140429524Y-84672819D02*
X140334286Y-84625200D01*
X140334286Y-84625200D02*
X140286667Y-84577580D01*
X124293333Y-70209580D02*
X124245714Y-70257200D01*
X124245714Y-70257200D02*
X124102857Y-70304819D01*
X124102857Y-70304819D02*
X124007619Y-70304819D01*
X124007619Y-70304819D02*
X123864762Y-70257200D01*
X123864762Y-70257200D02*
X123769524Y-70161961D01*
X123769524Y-70161961D02*
X123721905Y-70066723D01*
X123721905Y-70066723D02*
X123674286Y-69876247D01*
X123674286Y-69876247D02*
X123674286Y-69733390D01*
X123674286Y-69733390D02*
X123721905Y-69542914D01*
X123721905Y-69542914D02*
X123769524Y-69447676D01*
X123769524Y-69447676D02*
X123864762Y-69352438D01*
X123864762Y-69352438D02*
X124007619Y-69304819D01*
X124007619Y-69304819D02*
X124102857Y-69304819D01*
X124102857Y-69304819D02*
X124245714Y-69352438D01*
X124245714Y-69352438D02*
X124293333Y-69400057D01*
X124674286Y-69400057D02*
X124721905Y-69352438D01*
X124721905Y-69352438D02*
X124817143Y-69304819D01*
X124817143Y-69304819D02*
X125055238Y-69304819D01*
X125055238Y-69304819D02*
X125150476Y-69352438D01*
X125150476Y-69352438D02*
X125198095Y-69400057D01*
X125198095Y-69400057D02*
X125245714Y-69495295D01*
X125245714Y-69495295D02*
X125245714Y-69590533D01*
X125245714Y-69590533D02*
X125198095Y-69733390D01*
X125198095Y-69733390D02*
X124626667Y-70304819D01*
X124626667Y-70304819D02*
X125245714Y-70304819D01*
X124293333Y-62047580D02*
X124245714Y-62095200D01*
X124245714Y-62095200D02*
X124102857Y-62142819D01*
X124102857Y-62142819D02*
X124007619Y-62142819D01*
X124007619Y-62142819D02*
X123864762Y-62095200D01*
X123864762Y-62095200D02*
X123769524Y-61999961D01*
X123769524Y-61999961D02*
X123721905Y-61904723D01*
X123721905Y-61904723D02*
X123674286Y-61714247D01*
X123674286Y-61714247D02*
X123674286Y-61571390D01*
X123674286Y-61571390D02*
X123721905Y-61380914D01*
X123721905Y-61380914D02*
X123769524Y-61285676D01*
X123769524Y-61285676D02*
X123864762Y-61190438D01*
X123864762Y-61190438D02*
X124007619Y-61142819D01*
X124007619Y-61142819D02*
X124102857Y-61142819D01*
X124102857Y-61142819D02*
X124245714Y-61190438D01*
X124245714Y-61190438D02*
X124293333Y-61238057D01*
X125245714Y-62142819D02*
X124674286Y-62142819D01*
X124960000Y-62142819D02*
X124960000Y-61142819D01*
X124960000Y-61142819D02*
X124864762Y-61285676D01*
X124864762Y-61285676D02*
X124769524Y-61380914D01*
X124769524Y-61380914D02*
X124674286Y-61428533D01*
D12*
%TO.C,Y1*%
X123210000Y-65822000D02*
X123210000Y-65462000D01*
X125710000Y-65822000D02*
X125710000Y-65462000D01*
D13*
X126710000Y-66792000D02*
G75*
G03*
X126710000Y-66792000I-100000J0D01*
G01*
D14*
%TO.C,U3*%
X147961350Y-65032400D02*
X146005550Y-65032400D01*
X146005550Y-66294739D02*
X146005550Y-67021261D01*
X146005550Y-68283600D02*
X147961350Y-68283600D01*
%TO.C,U2*%
X148043900Y-70112400D02*
X146088100Y-70112400D01*
X146088100Y-71374739D02*
X146088100Y-72101261D01*
X146088100Y-73363600D02*
X148043900Y-73363600D01*
%TO.C,U1*%
X138607739Y-72893700D02*
X139077700Y-72893700D01*
X133718300Y-72423739D02*
X133718300Y-72893700D01*
X134188261Y-67534300D02*
X133718300Y-67534300D01*
X139077700Y-68004261D02*
X139077700Y-67534300D01*
X139077700Y-72893700D02*
X139077700Y-72423739D01*
X133718300Y-72893700D02*
X134188261Y-72893700D01*
X133718300Y-67534300D02*
X133718300Y-68004261D01*
X139077700Y-67534300D02*
X138607739Y-67534300D01*
G36*
X137338501Y-73681100D02*
G01*
X136957501Y-73681100D01*
X136957501Y-73427100D01*
X137338501Y-73427100D01*
X137338501Y-73681100D01*
G37*
G36*
X133184900Y-70154501D02*
G01*
X132930900Y-70154501D01*
X132930900Y-69773500D01*
X133184900Y-69773500D01*
X133184900Y-70154501D01*
G37*
G36*
X137838500Y-67000900D02*
G01*
X137457500Y-67000900D01*
X137457500Y-66746900D01*
X137838500Y-66746900D01*
X137838500Y-67000900D01*
G37*
D15*
%TO.C,R10*%
X135917000Y-78315064D02*
X135917000Y-77860936D01*
X137387000Y-78315064D02*
X137387000Y-77860936D01*
%TO.C,R9*%
X133885000Y-78315064D02*
X133885000Y-77860936D01*
X135355000Y-78315064D02*
X135355000Y-77860936D01*
%TO.C,R8*%
X140489000Y-78315064D02*
X140489000Y-77860936D01*
X141959000Y-78315064D02*
X141959000Y-77860936D01*
%TO.C,R7*%
X138457000Y-78315064D02*
X138457000Y-77860936D01*
X139927000Y-78315064D02*
X139927000Y-77860936D01*
%TO.C,R6*%
X129313000Y-78315064D02*
X129313000Y-77860936D01*
X130783000Y-78315064D02*
X130783000Y-77860936D01*
%TO.C,R5*%
X131345000Y-78315064D02*
X131345000Y-77860936D01*
X132815000Y-78315064D02*
X132815000Y-77860936D01*
%TO.C,R4*%
X127508341Y-85573970D02*
X127508341Y-85119842D01*
X128978341Y-85573970D02*
X128978341Y-85119842D01*
%TO.C,R3*%
X129507000Y-85571064D02*
X129507000Y-85116936D01*
X130977000Y-85571064D02*
X130977000Y-85116936D01*
%TO.C,R2*%
X144045000Y-85420564D02*
X144045000Y-84966436D01*
X145515000Y-85420564D02*
X145515000Y-84966436D01*
%TO.C,R1*%
X142013000Y-85420564D02*
X142013000Y-84966436D01*
X143483000Y-85420564D02*
X143483000Y-84966436D01*
%TO.C,INT*%
X145050000Y-77264000D02*
G75*
G03*
X145750000Y-77964000I700000J0D01*
G01*
X145750000Y-75164000D02*
G75*
G03*
X145050000Y-75864000I-1J-699999D01*
G01*
X147050000Y-75864000D02*
G75*
G03*
X146350000Y-75164000I-699999J1D01*
G01*
X146350000Y-77964000D02*
G75*
G03*
X147050000Y-77264000I0J700000D01*
G01*
X145750000Y-75164000D02*
X146350000Y-75164000D01*
X146350000Y-77964000D02*
X145750000Y-77964000D01*
X145050000Y-77264000D02*
X145050000Y-75864000D01*
X147050000Y-75864000D02*
X147050000Y-77264000D01*
%TO.C,PWR*%
X149590000Y-75864000D02*
X149590000Y-77264000D01*
X147590000Y-77264000D02*
X147590000Y-75864000D01*
X148890000Y-77964000D02*
X148290000Y-77964000D01*
X148290000Y-75164000D02*
X148890000Y-75164000D01*
X148890000Y-77964000D02*
G75*
G03*
X149590000Y-77264000I0J700000D01*
G01*
X149590000Y-75864000D02*
G75*
G03*
X148890000Y-75164000I-699999J1D01*
G01*
X148290000Y-75164000D02*
G75*
G03*
X147590000Y-75864000I-1J-699999D01*
G01*
X147590000Y-77264000D02*
G75*
G03*
X148290000Y-77964000I700000J0D01*
G01*
%TO.C,RESET*%
X147590000Y-80678000D02*
X147590000Y-79278000D01*
X149590000Y-79278000D02*
X149590000Y-80678000D01*
X148290000Y-78578000D02*
X148890000Y-78578000D01*
X148890000Y-81378000D02*
X148290000Y-81378000D01*
X148290000Y-78578000D02*
G75*
G03*
X147590000Y-79278000I0J-700000D01*
G01*
X147590000Y-80678000D02*
G75*
G03*
X148290000Y-81378000I699999J-1D01*
G01*
X148890000Y-81378000D02*
G75*
G03*
X149590000Y-80678000I1J699999D01*
G01*
X149590000Y-79278000D02*
G75*
G03*
X148890000Y-78578000I-700000J0D01*
G01*
%TO.C,I2C*%
X145050000Y-80678000D02*
X145050000Y-79278000D01*
X147050000Y-79278000D02*
X147050000Y-80678000D01*
X145750000Y-78578000D02*
X146350000Y-78578000D01*
X146350000Y-81378000D02*
X145750000Y-81378000D01*
X145750000Y-78578000D02*
G75*
G03*
X145050000Y-79278000I0J-700000D01*
G01*
X145050000Y-80678000D02*
G75*
G03*
X145750000Y-81378000I699999J-1D01*
G01*
X146350000Y-81378000D02*
G75*
G03*
X147050000Y-80678000I1J699999D01*
G01*
X147050000Y-79278000D02*
G75*
G03*
X146350000Y-78578000I-700000J0D01*
G01*
D12*
%TO.C,J3*%
X134032000Y-89190000D02*
X124032000Y-89190000D01*
X124032000Y-89190000D02*
X124032000Y-99190000D01*
X134032000Y-99190000D02*
X134032000Y-89190000D01*
D13*
X123382000Y-95190000D02*
G75*
G03*
X123382000Y-95190000I-100000J0D01*
G01*
D12*
X124032000Y-99190000D02*
X134032000Y-99190000D01*
%TO.C,J2*%
X148764000Y-89250000D02*
X138764000Y-89250000D01*
X138764000Y-89250000D02*
X138764000Y-99250000D01*
X148764000Y-99250000D02*
X148764000Y-89250000D01*
D13*
X138114000Y-95250000D02*
G75*
G03*
X138114000Y-95250000I-100000J0D01*
G01*
D12*
X138764000Y-99250000D02*
X148764000Y-99250000D01*
D16*
%TO.C,J1*%
X149428200Y-57844200D02*
G75*
G03*
X149428200Y-57844200I-381000J0D01*
G01*
D14*
X148005800Y-50402000D02*
X124841000Y-50402000D01*
X124841000Y-50402000D02*
X124841000Y-53022435D01*
X124841000Y-57971200D02*
X128851660Y-57971200D01*
X148005800Y-57971200D02*
X148005800Y-57027165D01*
X143995140Y-57971200D02*
X148005800Y-57971200D01*
X148005800Y-53022435D02*
X148005800Y-50402000D01*
X124841000Y-57027165D02*
X124841000Y-57971200D01*
D15*
%TO.C,D1*%
X149767000Y-60872000D02*
X147082000Y-60872000D01*
X149767000Y-62792000D02*
X149767000Y-60872000D01*
X147082000Y-62792000D02*
X149767000Y-62792000D01*
%TO.C,C15*%
X128853693Y-60993190D02*
X128701190Y-61145693D01*
X129362810Y-61502307D02*
X129210307Y-61654810D01*
%TO.C,C14*%
X140102000Y-74170164D02*
X140102000Y-74385836D01*
X140822000Y-74170164D02*
X140822000Y-74385836D01*
%TO.C,C13*%
X130448164Y-66256000D02*
X130663836Y-66256000D01*
X130448164Y-65536000D02*
X130663836Y-65536000D01*
%TO.C,C12*%
X130448164Y-67526000D02*
X130663836Y-67526000D01*
X130448164Y-66806000D02*
X130663836Y-66806000D01*
%TO.C,C11*%
X142134000Y-69852164D02*
X142134000Y-70067836D01*
X142854000Y-69852164D02*
X142854000Y-70067836D01*
%TO.C,C10*%
X131170000Y-72099836D02*
X131170000Y-71884164D01*
X130450000Y-72099836D02*
X130450000Y-71884164D01*
%TO.C,C9*%
X132186000Y-72099836D02*
X132186000Y-71884164D01*
X131466000Y-72099836D02*
X131466000Y-71884164D01*
%TO.C,C8*%
X141118000Y-69852164D02*
X141118000Y-70067836D01*
X141838000Y-69852164D02*
X141838000Y-70067836D01*
%TO.C,C7*%
X141838000Y-74385836D02*
X141838000Y-74170164D01*
X141118000Y-74385836D02*
X141118000Y-74170164D01*
%TO.C,C6*%
X127939190Y-60383693D02*
X128091693Y-60231190D01*
X128448307Y-60892810D02*
X128600810Y-60740307D01*
%TO.C,C5*%
X129942000Y-69090164D02*
X129942000Y-69305836D01*
X130662000Y-69090164D02*
X130662000Y-69305836D01*
%TO.C,C4*%
X132956164Y-83418000D02*
X133171836Y-83418000D01*
X132956164Y-82698000D02*
X133171836Y-82698000D01*
%TO.C,C3*%
X140227836Y-82698000D02*
X140012164Y-82698000D01*
X140227836Y-83418000D02*
X140012164Y-83418000D01*
%TO.C,C2*%
X124352164Y-69050000D02*
X124567836Y-69050000D01*
X124352164Y-68330000D02*
X124567836Y-68330000D01*
%TO.C,C1*%
X124352164Y-63208000D02*
X124567836Y-63208000D01*
X124352164Y-62488000D02*
X124567836Y-62488000D01*
%TD*%
%LPC*%
D17*
%TO.C,Y1*%
X125335000Y-66792000D03*
X125335000Y-64492000D03*
X123585000Y-64492000D03*
X123585000Y-66792000D03*
%TD*%
D18*
%TO.C,U3*%
X148336000Y-67608001D03*
X148336000Y-66658000D03*
X148336000Y-65707999D03*
X145630900Y-65707999D03*
X145630900Y-67608001D03*
%TD*%
%TO.C,U2*%
X148418550Y-72688001D03*
X148418550Y-71738000D03*
X148418550Y-70787999D03*
X145713450Y-70787999D03*
X145713450Y-72688001D03*
%TD*%
D19*
%TO.C,U1*%
X136398000Y-70214000D03*
D20*
X138147999Y-72715900D03*
X137648000Y-72715900D03*
X137148001Y-72715900D03*
X136648000Y-72715900D03*
X136148000Y-72715900D03*
X135647999Y-72715900D03*
X135148000Y-72715900D03*
X134648001Y-72715900D03*
D21*
X133896100Y-71963999D03*
X133896100Y-71464000D03*
X133896100Y-70964001D03*
X133896100Y-70464000D03*
X133896100Y-69964000D03*
X133896100Y-69463999D03*
X133896100Y-68964000D03*
X133896100Y-68464001D03*
D20*
X134648001Y-67712100D03*
X135148000Y-67712100D03*
X135647999Y-67712100D03*
X136148000Y-67712100D03*
X136648000Y-67712100D03*
X137148001Y-67712100D03*
X137648000Y-67712100D03*
X138147999Y-67712100D03*
D21*
X138899900Y-68464001D03*
X138899900Y-68964000D03*
X138899900Y-69463999D03*
X138899900Y-69964000D03*
X138899900Y-70464000D03*
X138899900Y-70964001D03*
X138899900Y-71464000D03*
X138899900Y-71963999D03*
%TD*%
D22*
%TO.C,R10*%
X136652000Y-79000500D03*
X136652000Y-77175500D03*
%TD*%
%TO.C,R9*%
X134620000Y-79000500D03*
X134620000Y-77175500D03*
%TD*%
%TO.C,R8*%
X141224000Y-79000500D03*
X141224000Y-77175500D03*
%TD*%
%TO.C,R7*%
X139192000Y-79000500D03*
X139192000Y-77175500D03*
%TD*%
%TO.C,R6*%
X130048000Y-79000500D03*
X130048000Y-77175500D03*
%TD*%
%TO.C,R5*%
X132080000Y-79000500D03*
X132080000Y-77175500D03*
%TD*%
%TO.C,R4*%
X128243341Y-86259406D03*
X128243341Y-84434406D03*
%TD*%
%TO.C,R3*%
X130242000Y-86256500D03*
X130242000Y-84431500D03*
%TD*%
%TO.C,R2*%
X144780000Y-86106000D03*
X144780000Y-84281000D03*
%TD*%
%TO.C,R1*%
X142748000Y-86106000D03*
X142748000Y-84281000D03*
%TD*%
D23*
%TO.C,INT*%
X146050000Y-77214000D03*
D24*
X146050000Y-75914000D03*
%TD*%
%TO.C,PWR*%
X148590000Y-75914000D03*
D23*
X148590000Y-77214000D03*
%TD*%
D25*
%TO.C,RESET*%
X148590000Y-80628000D03*
D26*
X148590000Y-79328000D03*
%TD*%
D25*
%TO.C,I2C*%
X146050000Y-80628000D03*
D26*
X146050000Y-79328000D03*
%TD*%
D27*
%TO.C,J3*%
X125282000Y-91490000D03*
D28*
X129032000Y-95190000D03*
D27*
X132782000Y-91490000D03*
%TD*%
%TO.C,J2*%
X140014000Y-91550000D03*
D28*
X143764000Y-95250000D03*
D27*
X147514000Y-91550000D03*
%TD*%
D29*
%TO.C,J1*%
X143357600Y-57844200D03*
X142367000Y-57844200D03*
X141376400Y-57844200D03*
X140385800Y-57844200D03*
X139395200Y-57844200D03*
X138404600Y-57844200D03*
X137414000Y-57844200D03*
X136423400Y-57844200D03*
X135432800Y-57844200D03*
X134442200Y-57844200D03*
X133451600Y-57844200D03*
X132461000Y-57844200D03*
X131470400Y-57844200D03*
X130479800Y-57844200D03*
X129489200Y-57844200D03*
D30*
X146405600Y-55024800D03*
X126441200Y-55024800D03*
%TD*%
D31*
%TO.C,D1*%
X149019500Y-61832000D03*
X147144500Y-61832000D03*
%TD*%
D32*
%TO.C,C15*%
X129371411Y-60984589D03*
X128692589Y-61663411D03*
%TD*%
D33*
%TO.C,C14*%
X140462000Y-73798000D03*
X140462000Y-74758000D03*
%TD*%
D34*
%TO.C,C13*%
X130076000Y-65896000D03*
X131036000Y-65896000D03*
%TD*%
%TO.C,C12*%
X130076000Y-67166000D03*
X131036000Y-67166000D03*
%TD*%
D33*
%TO.C,C11*%
X142494000Y-69480000D03*
X142494000Y-70440000D03*
%TD*%
D35*
%TO.C,C10*%
X130810000Y-72472000D03*
X130810000Y-71512000D03*
%TD*%
%TO.C,C9*%
X131826000Y-72472000D03*
X131826000Y-71512000D03*
%TD*%
D33*
%TO.C,C8*%
X141478000Y-69480000D03*
X141478000Y-70440000D03*
%TD*%
D35*
%TO.C,C7*%
X141478000Y-74758000D03*
X141478000Y-73798000D03*
%TD*%
D36*
%TO.C,C6*%
X128609411Y-60222589D03*
X127930589Y-60901411D03*
%TD*%
D33*
%TO.C,C5*%
X130302000Y-68718000D03*
X130302000Y-69678000D03*
%TD*%
D34*
%TO.C,C4*%
X132584000Y-83058000D03*
X133544000Y-83058000D03*
%TD*%
D37*
%TO.C,C3*%
X140600000Y-83058000D03*
X139640000Y-83058000D03*
%TD*%
D34*
%TO.C,C2*%
X123980000Y-68690000D03*
X124940000Y-68690000D03*
%TD*%
%TO.C,C1*%
X123980000Y-62848000D03*
X124940000Y-62848000D03*
%TD*%
%LPD*%
M02*
